<?xml version="1.0" encoding="UTF-8"?>
<svg version="1.1" xmlns="http://www.w3.org/2000/svg" width="1254" height="1254">
<path d="M0 0 C413.82 0 827.64 0 1254 0 C1254 413.82 1254 827.64 1254 1254 C840.18 1254 426.36 1254 0 1254 C0 840.18 0 426.36 0 0 Z " fill="#FDFDFD" transform="translate(0,0)"/>
<path d="M0 0 C4.11275888 2.05637944 6.96718077 4.56460933 10.25 7.6875 C11.42244203 8.78724251 12.59561524 9.88620603 13.76953125 10.984375 C14.3310791 11.51095703 14.89262695 12.03753906 15.47119141 12.58007812 C17.25900652 14.24055924 19.08669928 15.84765817 20.9375 17.4375 C25.35635384 21.2559151 29.5999743 25.26047759 33.86914062 29.24414062 C36.85307678 32.02339091 39.84523563 34.77828797 42.9375 37.4375 C47.53519681 41.40239553 51.93051213 45.58445773 56.35986328 49.73486328 C61.51291191 54.55869294 66.73121501 59.30274423 72 64 C78.49863941 69.79370225 84.89913215 75.68297141 91.25610352 81.63110352 C96.94753284 86.95640496 102.67023318 92.24692456 108.40283203 97.52783203 C110.02875152 99.02650133 111.6532681 100.52667664 113.27734375 102.02734375 C118.46609922 106.82147016 123.66130621 111.60799484 128.875 116.375 C133.48816185 120.59338684 138.0611717 124.85332975 142.625 129.125 C146.71718196 132.95469171 150.82073284 136.76504032 155 140.5 C159.17927013 144.23496234 163.28273419 148.04539435 167.375 151.875 C175.78331975 159.74200707 184.1977856 167.59539739 192.89453125 175.14453125 C198.79331553 180.3429033 204.53620772 185.72070664 210.30859375 191.05859375 C216.82932465 197.08835197 223.38502621 203.07341373 230 209 C232.46137305 211.22087248 234.92244817 213.44207257 237.3828125 215.6640625 C239.79135882 217.95100139 239.79135882 217.95100139 241.9781189 219.22007751 C245.71288746 221.78466696 247.71574454 223.70249448 248.7048645 228.21740723 C248.9265701 232.28177702 248.90106481 236.27443006 248.78125 240.33984375 C248.76631055 241.83196467 248.75493157 243.32412509 248.74694824 244.81629944 C248.71654539 248.7250899 248.63809465 252.63146443 248.54931641 256.53930664 C248.4671627 260.53433553 248.43087446 264.52975873 248.390625 268.52539062 C248.30508033 276.35135644 248.16872792 284.17533847 248 292 C246.73709894 291.07499699 245.47729092 290.14577038 244.21875 289.21484375 C243.51685547 288.69784912 242.81496094 288.18085449 242.09179688 287.64819336 C239.42679733 285.54835536 237.11947178 283.20146078 234.76171875 280.76953125 C232.38086196 278.37811634 229.83850868 276.20404988 227.28515625 274 C224.56962847 271.62333295 221.90666062 269.19192492 219.25 266.75 C218.74283447 266.28400391 218.23566895 265.81800781 217.71313477 265.33789062 C215.61371981 263.40736384 213.51588508 261.47512379 211.41796875 259.54296875 C204.37273987 253.03721372 204.37273987 253.03721372 197.1875 246.6875 C192.55634439 242.67512093 188.11592561 238.45866866 183.64501953 234.27001953 C177.28173486 228.31388329 170.84141434 222.45330798 164.25 216.75 C159.77932853 212.86087929 155.46813572 208.80262354 151.13598633 204.76098633 C147.52097563 201.39431663 143.86229905 198.09738047 140.12109375 194.87109375 C136.61342275 191.77684991 133.20171197 188.57856334 129.77270508 185.39770508 C126.92616535 182.7621117 124.06627346 180.15526582 121.125 177.625 C116.45613802 173.59189795 111.99279499 169.337526 107.49316406 165.11816406 C103.75114781 161.61551717 99.97186254 158.17885118 96.0859375 154.8359375 C93.17636877 152.27508113 90.34154434 149.63587983 87.5 147 C84.03716632 143.7883665 80.57351485 140.58897047 77 137.5 C72.84335971 133.90697196 68.83129115 130.16251748 64.80371094 126.42651367 C61.05420315 122.95497145 57.25856548 119.54678658 53.390625 116.20703125 C52.57158034 115.49611889 51.76688674 114.76688674 51 114 C50.67 167.46 50.34 220.92 50 276 C33.5 276 17 276 0 276 C0 184.92 0 93.84 0 0 Z " fill="#131518" transform="translate(500,421)"/>
<path d="M0 0 C17.16 0 34.32 0 52 0 C52 59.73 52 119.46 52 181 C48.7934761 179.39673805 47.14853598 178.41369232 44.6796875 176.05859375 C43.76038452 175.18956421 43.76038452 175.18956421 42.82250977 174.30297852 C41.85849243 173.37956665 41.85849243 173.37956665 40.875 172.4375 C39.52796282 171.16340766 38.18030578 169.88997037 36.83203125 168.6171875 C36.1767041 167.99682617 35.52137695 167.37646484 34.84619141 166.73730469 C29.78096551 161.97082129 24.57694765 157.35702319 19.3125 152.8125 C18.42613609 151.98427231 18.42613609 151.98427231 17.52186584 151.13931274 C15.491631 149.4170533 13.5769467 148.07377232 11.34910583 146.65145874 C5.76521321 142.75504745 1.01174192 138.68715611 -0.84376144 131.92502594 C-2.04264596 123.43112483 -1.77389767 114.8705277 -1.52090907 106.32005739 C-1.42624588 102.57425147 -1.41826022 98.82820786 -1.40052795 95.08139038 C-1.35415874 88.00759385 -1.23143904 80.93733227 -1.08028561 73.8650831 C-0.91181002 65.80495485 -0.82995172 57.74464511 -0.75485408 49.68319058 C-0.59864038 33.11973936 -0.32391416 16.56114961 0 0 Z " fill="#131418" transform="translate(696,414)"/>
<path d="M0 0 C5.54665421 3.93344419 10.30579688 8.23377628 12 15 C13.20686748 26.35209723 11.85674269 34.43313728 4.75 43.3125 C-0.63269483 49.11102533 -6.75234509 51.50828426 -14.54296875 52.23828125 C-23.74437569 52.49651867 -31.60565854 50.18794329 -38.46484375 43.84765625 C-44.52659128 36.5519652 -46.72831201 28.27923446 -46 19 C-44.56098618 11.58542032 -40.98227802 5.09221202 -34.97265625 0.42578125 C-25.10833262 -5.98511065 -9.93837872 -6.72477123 0 0 Z " fill="#F8F8F8" transform="translate(862,786)"/>
<path d="M0 0 C5.54665421 3.93344419 10.30579688 8.23377628 12 15 C13.20686748 26.35209723 11.85674269 34.43313728 4.75 43.3125 C-0.63269483 49.11102533 -6.75234509 51.50828426 -14.54296875 52.23828125 C-23.74437569 52.49651867 -31.60565854 50.18794329 -38.46484375 43.84765625 C-44.52659128 36.5519652 -46.72831201 28.27923446 -46 19 C-44.56098618 11.58542032 -40.98227802 5.09221202 -34.97265625 0.42578125 C-25.10833262 -5.98511065 -9.93837872 -6.72477123 0 0 Z M-34 11 C-37.97187872 16.42823425 -37.73892196 22.54504954 -37 29 C-35.22162808 35.71083744 -30.83956062 39.53463446 -25 43 C-18.3690714 45.21030953 -12.29684361 44.4087749 -6.078125 41.33203125 C-1.6357463 38.48456671 1.11875127 34.84261099 3.375 30.125 C4.57782703 24.11086486 5.07551627 19.20425603 1.875 13.75 C-1.98423102 8.2927212 -6.30751885 4.47234585 -13 3 C-21.69039277 2.31028629 -27.67796322 4.82164588 -34 11 Z " fill="#17181C" transform="translate(862,786)"/>
<path d="M0 0 C3.9300232 1.9650116 6.30086633 3.90806152 9.5 6.875 C10.02045898 7.35678711 10.54091797 7.83857422 11.07714844 8.33496094 C15.4121753 12.37838239 19.596823 16.5634012 23.76171875 20.78076172 C27.13934063 24.18638112 30.61317313 27.41109316 34.28125 30.5 C36.27389801 32.23903826 38.12985292 34.12985292 40 36 C40.33 24.12 40.66 12.24 41 0 C43.64 0 46.28 0 49 0 C49 18.15 49 36.3 49 55 C44.7983513 52.89917565 41.86190456 50.31456824 38.5 47.125 C37.86360596 46.52727783 37.22721191 45.92955566 36.5715332 45.3137207 C29.74626254 38.85224793 23.12710708 32.18134176 16.52734375 25.49072266 C15.7075 24.66233887 14.88765625 23.83395508 14.04296875 22.98046875 C13.31102295 22.23692139 12.57907715 21.49337402 11.82495117 20.72729492 C10.10391559 18.93110882 10.10391559 18.93110882 8 18 C8 30.21 8 42.42 8 55 C5.36 55 2.72 55 0 55 C0 36.85 0 18.7 0 0 Z " fill="#16171B" transform="translate(378,782)"/>
<path d="M0 0 C2.64 0 5.28 0 8 0 C8.01401855 1.62627319 8.01401855 1.62627319 8.02832031 3.28540039 C8.06838072 7.33186997 8.13418286 11.37759202 8.20751953 15.42358398 C8.23563652 17.17023063 8.25689697 18.91700232 8.27099609 20.66381836 C8.2925552 23.18407785 8.33926833 25.70284858 8.390625 28.22265625 C8.39185364 28.99585709 8.39308228 29.76905792 8.39434814 30.56568909 C8.5422415 36.11761936 9.82053777 39.42179266 13 44 C17.48531168 47.16010596 21.67334805 47.76703788 27 47 C32.24123244 45.18572723 34.37809978 42.83151314 37 38 C37.57156896 35.02952411 37.60473966 32.12064881 37.609375 29.1015625 C37.62591125 28.26660248 37.64244751 27.43164246 37.65948486 26.57138062 C37.70780345 23.92251105 37.72929925 21.27421488 37.75 18.625 C37.77817328 16.82158599 37.80810261 15.0181985 37.83984375 13.21484375 C37.91355772 8.80994308 37.96323057 4.4053577 38 0 C40.97 0 43.94 0 47 0 C47.09940554 5.40766124 47.17172051 10.81478228 47.21972656 16.22314453 C47.23975373 18.06015293 47.26698382 19.89709829 47.30175781 21.73388672 C47.35067065 24.38525002 47.37305763 27.03576541 47.390625 29.6875 C47.41127014 30.49928711 47.43191528 31.31107422 47.45318604 32.14746094 C47.45575295 38.77626898 45.59399477 43.85632539 41.359375 48.98828125 C34.70484611 54.46373099 28.49636589 56.69544075 19.80859375 56.40625 C12.91906833 55.40971225 7.68781796 52.35993413 3.4375 46.875 C0.97948602 43.29590882 -0.12725084 40.33851647 -0.11352539 35.98754883 C-0.11344986 35.18694534 -0.11337433 34.38634186 -0.11329651 33.56147766 C-0.10813522 32.70201035 -0.10297394 31.84254303 -0.09765625 30.95703125 C-0.0962413 30.0734343 -0.09482635 29.18983734 -0.09336853 28.27946472 C-0.08777069 25.45710872 -0.07521861 22.63483203 -0.0625 19.8125 C-0.05748472 17.89908969 -0.05292186 15.98567813 -0.04882812 14.07226562 C-0.03780197 9.38147986 -0.02053883 4.69075337 0 0 Z " fill="#1A1B1F" transform="translate(499,782)"/>
<path d="M0 0 C3.3 0 6.6 0 10 0 C15.61 11.88 21.22 23.76 27 36 C29.05373867 32.91939199 30.58568689 29.84155144 32.1875 26.50390625 C32.49067139 25.87395248 32.79384277 25.24399872 33.10620117 24.59495544 C34.07291768 22.58514622 35.03654277 20.57387338 36 18.5625 C36.96412747 16.55502481 37.92888056 14.54785141 38.89379883 12.54075623 C39.77007239 10.71719963 40.64484024 8.89291973 41.51953125 7.06860352 C42.66074989 4.70317195 43.82546635 2.3490673 45 0 C47.97 0 50.94 0 54 0 C52.47908391 5.00889022 50.3893607 9.54684421 48.078125 14.22265625 C47.69565613 15.00458847 47.31318726 15.78652069 46.91912842 16.59214783 C45.69961797 19.08401501 44.47511387 21.5733836 43.25 24.0625 C41.64902539 27.32323301 40.0502877 30.58505451 38.453125 33.84765625 C37.87624939 35.02529037 37.87624939 35.02529037 37.28771973 36.22671509 C34.09049937 42.77240351 31.00779413 49.36485376 28 56 C27.34 56 26.68 56 26 56 C25.67427002 55.29319092 25.34854004 54.58638184 25.01293945 53.8581543 C23.44842455 50.46687108 21.88137479 47.07676787 20.3125 43.6875 C20.02565338 43.06773285 19.73880676 42.4479657 19.44326782 41.80941772 C14.39345114 30.90923571 9.21973273 20.07261682 3.96411133 9.27026367 C3.44357178 8.19752197 2.92303223 7.12478027 2.38671875 6.01953125 C1.92483154 5.07182861 1.46294434 4.12412598 0.98706055 3.14770508 C0 1 0 1 0 0 Z " fill="#17181C" transform="translate(614,782)"/>
<path d="M0 0 C2.64 0 5.28 0 8 0 C8 18.15 8 36.3 8 55 C5.36 55 2.72 55 0 55 C0 36.85 0 18.7 0 0 Z " fill="#141519" transform="translate(738,782)"/>
<path d="M0 0 C0.33 0 0.66 0 1 0 C1 5.61 1 11.22 1 17 C0.34 17.33 -0.32 17.66 -1 18 C-1.99 17.01 -2.98 16.02 -4 15 C-2.68 15 -1.36 15 0 15 C0 10.05 0 5.1 0 0 Z " fill="#242528" transform="translate(745,692)"/>
<path d="M0 0 C3.59905908 0.55550695 4.99909799 1.74887248 7.25 4.5625 C8.03117188 5.52349609 8.03117188 5.52349609 8.828125 6.50390625 C9.21484375 6.99761719 9.6015625 7.49132812 10 8 C7 8 7 8 5.17578125 6.50390625 C4.56089844 5.86324219 3.94601562 5.22257812 3.3125 4.5625 C2.68988281 3.92441406 2.06726563 3.28632813 1.42578125 2.62890625 C0 1 0 1 0 0 Z " fill="#E7E7E8" transform="translate(554,468)"/>
<path d="M0 0 C2.70931419 0.15481795 4.46584039 0.48172081 6.4453125 2.40234375 C7.67679642 3.89771708 8.8429837 5.4462924 10 7 C6.433255 7 5.89456323 6.36308045 3.3125 4.0625 C2.68988281 3.51722656 2.06726563 2.97195313 1.42578125 2.41015625 C0.95527344 1.94480469 0.48476563 1.47945312 0 1 C0 0.67 0 0.34 0 0 Z " fill="#212226" transform="translate(674,582)"/>
<path d="M0 0 C0.8125 1.6875 0.8125 1.6875 1 4 C-1.4375 6.75 -1.4375 6.75 -4 9 C-4.99 8.67 -5.98 8.34 -7 8 C-6.21625 7.4225 -5.4325 6.845 -4.625 6.25 C-2.19952756 4.17102363 -1.14305583 2.90959667 0 0 Z " fill="#27282B" transform="translate(536,820)"/>
<path d="M0 0 C3.81684226 1.55500981 6.19195732 4.03595495 9 7 C8.67 7.66 8.34 8.32 8 9 C6.66079162 7.88200014 5.32877444 6.75538103 4 5.625 C2.88625 4.68527344 2.88625 4.68527344 1.75 3.7265625 C1.1725 3.15679688 0.595 2.58703125 0 2 C0 1.34 0 0.68 0 0 Z " fill="#222325" transform="translate(566,547)"/>
<path d="M0 0 C1.98 0 3.96 0 6 0 C6 0.99 6 1.98 6 3 C4.02 3.99 4.02 3.99 2 5 C1.34 3.35 0.68 1.7 0 0 Z " fill="#222327" transform="translate(614,782)"/>
<path d="M0 0 C3.36591866 1.44253657 5.51047079 3.33264727 8 6 C7.67 6.66 7.34 7.32 7 8 C5.8274869 7.04882866 4.66212985 6.08882991 3.5 5.125 C2.8503125 4.59132813 2.200625 4.05765625 1.53125 3.5078125 C1.0259375 3.01023437 0.520625 2.51265625 0 2 C0 1.34 0 0.68 0 0 Z " fill="#1D1E21" transform="translate(588,567)"/>
</svg>
