<?xml version="1.0" encoding="UTF-8"?>
<svg version="1.1" xmlns="http://www.w3.org/2000/svg" width="1254" height="1254">
<path d="M0 0 C413.82 0 827.64 0 1254 0 C1254 413.82 1254 827.64 1254 1254 C840.18 1254 426.36 1254 0 1254 C0 840.18 0 426.36 0 0 Z " fill="#FBFBFB" transform="translate(0,0)"/>
<path d="M0 0 C413.82 0 827.64 0 1254 0 C1254 413.82 1254 827.64 1254 1254 C840.18 1254 426.36 1254 0 1254 C0 840.18 0 426.36 0 0 Z M262.0625 129.8125 C261.10375977 130.07458252 260.14501953 130.33666504 259.15722656 130.60668945 C246.00270263 133.81451396 246.00270263 133.81451396 235 141 C233.10182164 141.73263024 231.20104168 142.45954136 229.28515625 143.14453125 C222.01873561 145.86478103 215.68716714 149.73293171 209.375 154.1875 C208.7464209 154.62779541 208.1178418 155.06809082 207.47021484 155.52172852 C205.93991421 156.62751195 204.46414774 157.80800653 203 159 C203 159.66 203 160.32 203 161 C202.278125 161.2475 201.55625 161.495 200.8125 161.75 C197.72393418 163.12269592 195.48988582 164.72353296 193 167 C193 167.66 193 168.32 193 169 C192.43023437 169.24363281 191.86046875 169.48726562 191.2734375 169.73828125 C184.48930274 173.50335948 175.50171754 182.49484738 173 190 C171.66948853 191.33614923 170.33575098 192.6690887 169 194 C167.78716346 195.76074077 166.62167468 197.5548279 165.5 199.375 C163.59102134 202.45810316 161.67850211 205.49316966 159.5625 208.4375 C157.65292838 211.06898048 157.65292838 211.06898048 158 215 C157.34 215 156.68 215 156 215 C155.67 216.65 155.34 218.3 155 220 C154.34 220 153.68 220 153 220 C152.34 222.97 151.68 225.94 151 229 C150.34 229 149.68 229 149 229 C146.08043991 236.69840893 143.59239778 244.44731235 141.375 252.375 C141.0759375 253.40882813 140.776875 254.44265625 140.46875 255.5078125 C137.24350717 266.98168524 135.69484038 278.17288977 135.74831772 290.08382988 C135.74541084 291.23229977 135.74250396 292.38076966 135.73950899 293.56404167 C135.73223989 297.39275493 135.73913801 301.22130636 135.74603271 305.05001831 C135.74483531 307.83066615 135.74063156 310.61130769 135.73657823 313.39195263 C135.72937589 319.42758818 135.729561 325.46318791 135.73467255 331.49882507 C135.74225306 340.47429807 135.73836193 349.44974098 135.73225593 358.42521378 C135.72173446 374.45811264 135.72263331 390.49099555 135.72841376 406.52389592 C135.73344787 420.55593196 135.73475687 434.58796217 135.73236847 448.61999893 C135.7322157 449.55132618 135.73206293 450.48265342 135.73190553 451.4422027 C135.73128283 455.22292949 135.73064603 459.00365628 135.729986 462.78438307 C135.72386972 498.24179956 135.72941202 533.6992059 135.7401798 569.15662082 C135.74966924 600.6439701 135.74882286 632.13130321 135.73925781 663.61865234 C135.72854308 699.00882914 135.72430508 734.39899696 135.73048234 769.78917515 C135.73112376 773.56357328 135.73174944 777.33797141 135.73236847 781.11236954 C135.73252662 782.04169711 135.73268478 782.97102469 135.73284773 783.9285137 C135.73512057 797.94879345 135.73246601 811.9690667 135.72740936 825.98934555 C135.72168652 841.93610067 135.72312968 857.88283736 135.73397085 873.82959019 C135.73983506 882.7492048 135.74023887 891.66877949 135.7326785 900.58839305 C135.72818165 906.55264555 135.73100664 912.51686615 135.73968804 918.48111394 C135.74442788 921.87512956 135.74499902 925.26900142 135.73887607 928.66302441 C135.26520936 951.43063581 135.26520936 951.43063581 140.203125 973.4609375 C142.08828366 979.46757048 142.92835922 985.80576426 144 992 C144.66 992 145.32 992 146 992 C146 993.32 146 994.64 146 996 C146.66 996 147.32 996 148 996 C148.185625 997.5778125 148.185625 997.5778125 148.375 999.1875 C148.91140782 1002.45958771 149.63880035 1005.00536076 151 1008 C151.66 1008 152.32 1008 153 1008 C153.17789063 1008.81404297 153.17789063 1008.81404297 153.359375 1009.64453125 C155.60583916 1017.90439644 159.65038847 1025.67044184 164 1033 C164.66 1033 165.32 1033 166 1033 C166.0825 1033.55429688 166.165 1034.10859375 166.25 1034.6796875 C167.24758062 1037.76595255 168.91627847 1039.64334554 171 1042.125 C171.80695313 1043.08664062 172.61390625 1044.04828125 173.4453125 1045.0390625 C180.95360214 1054.60806493 180.95360214 1054.60806493 190.1875 1062.25 C192.60609796 1063.7549054 194.46058327 1065.23240278 196.5625 1067.125 C212.39304362 1081.20319451 231.74411583 1092.56062941 252 1099 C252.8971875 1099.28617188 253.794375 1099.57234375 254.71875 1099.8671875 C261.72943025 1102.14954141 261.72943025 1102.14954141 269 1103 C271.76922164 1103.77801941 274.52079806 1104.606711 277.2734375 1105.44140625 C280.06465591 1106.01324612 281.35411367 1105.89312619 284 1105 C285.99788438 1104.65421232 287.99759451 1104.31856451 290 1104 C290 1104.66 290 1105.32 290 1106 C302.86515981 1108.86160585 315.98516725 1108.27849895 329.08314514 1108.25396729 C331.75868803 1108.25627311 334.43421953 1108.25936877 337.10975927 1108.26342177 C342.91566441 1108.27062206 348.7215323 1108.27044027 354.52743912 1108.26532745 C363.16114619 1108.25774515 371.79482201 1108.26163895 380.42852889 1108.26774407 C395.85033563 1108.27826372 411.27212578 1108.27736751 426.69393408 1108.27158624 C440.18931861 1108.26655207 453.68469705 1108.26524316 467.18008232 1108.26763153 C468.07579992 1108.2677843 468.97151752 1108.26793707 469.89437808 1108.26809447 C473.53051796 1108.26871716 477.16665784 1108.26935396 480.80279771 1108.270014 C514.90067938 1108.27612969 548.9985505 1108.27058864 583.09643054 1108.2598202 C613.3820824 1108.25032844 643.66771743 1108.2511792 673.95336914 1108.26074219 C707.99101454 1108.27145401 742.02865062 1108.27569675 776.06629747 1108.26951766 C779.69544279 1108.26887624 783.32458812 1108.26825056 786.95373344 1108.26763153 C787.84730137 1108.26747338 788.74086931 1108.26731522 789.66151505 1108.26715227 C803.1482225 1108.26487847 816.6349232 1108.26753574 830.12162971 1108.27259064 C845.45765358 1108.27831006 860.79365827 1108.27687749 876.12967975 1108.26602915 C884.70999261 1108.26015966 893.29026396 1108.2597688 901.87057574 1108.2673215 C907.60483023 1108.27181187 913.33905149 1108.26900499 919.07330107 1108.26031196 C922.33839996 1108.25556327 925.60340036 1108.25501433 928.86849941 1108.26112393 C932.39230613 1108.26721186 935.91588792 1108.26096044 939.43968296 1108.25168228 C940.94624646 1108.25870578 940.94624646 1108.25870578 942.48324558 1108.26587117 C949.48295733 1108.22907521 956.13118504 1107.32712204 963 1106 C963 1105.34 963 1104.68 963 1104 C964.11375 1104.185625 965.2275 1104.37125 966.375 1104.5625 C977.05409654 1105.73211533 989.11565387 1105.41265452 999 1101 C999.66 1100.34 1000.32 1099.68 1001 1099 C1003.37809053 1097.59076117 1005.51377063 1096.86073617 1008.19921875 1096.1328125 C1018.62927161 1093.02416365 1028.10990667 1087.58277036 1037.1953125 1081.69921875 C1040 1080 1040 1080 1042.51953125 1079.0078125 C1053.41693151 1074.58020736 1061.40570869 1064.58071726 1069 1056 C1069.60714844 1055.41992188 1070.21429687 1054.83984375 1070.83984375 1054.2421875 C1072.22752129 1053.03967528 1072.22752129 1053.03967528 1072 1051 C1072.66 1051 1073.32 1051 1074 1051 C1075.44526736 1049.26451831 1076.8087222 1047.46024037 1078.125 1045.625 C1078.84945312 1044.62726562 1079.57390625 1043.62953125 1080.3203125 1042.6015625 C1082.18080472 1040.23607762 1082.18080472 1040.23607762 1082 1038 C1082.639375 1037.814375 1083.27875 1037.62875 1083.9375 1037.4375 C1086.42126213 1036.05753944 1086.42126213 1036.05753944 1086.75 1032.375 C1086.8325 1031.26125 1086.915 1030.1475 1087 1029 C1088.35931641 1028.71769531 1088.35931641 1028.71769531 1089.74609375 1028.4296875 C1093.93449975 1026.58940347 1095.17543011 1024.07348863 1097.0625 1020.125 C1097.39830078 1019.45750732 1097.73410156 1018.79001465 1098.08007812 1018.10229492 C1103.76301518 1007.50577701 1103.76301518 1007.50577701 1106 996 C1106.66 996 1107.32 996 1108 996 C1108.33 994.7625 1108.66 993.525 1109 992.25 C1109.185625 991.55390625 1109.37125 990.8578125 1109.5625 990.140625 C1110.13349349 987.71098139 1110.13349349 987.71098139 1110 984 C1110.66 984 1111.32 984 1112 984 C1112.46357357 980.87575569 1112.91974989 977.7504671 1113.375 974.625 C1113.56449219 973.34882812 1113.56449219 973.34882812 1113.7578125 972.046875 C1114.1944569 969.03402863 1114.59666071 966.01749603 1115 963 C1115.16894958 961.81269212 1115.33789917 960.62538425 1115.51196843 959.40209734 C1117.35867831 945.51709646 1117.27669894 931.68227398 1117.24723816 917.69711304 C1117.24771673 914.94998628 1117.25121191 912.20286513 1117.25455457 909.45574057 C1117.26020582 903.50880859 1117.25852268 897.56191494 1117.2518692 891.61498451 C1117.24200251 882.77144354 1117.24369651 873.92793033 1117.2476195 865.08438606 C1117.25387914 850.19978963 1117.25074066 835.31520909 1117.24202538 820.43061447 C1117.23339753 805.69180529 1117.22850553 790.95300326 1117.22869301 776.21419144 C1117.22870065 775.29583014 1117.2287083 774.37746884 1117.22871618 773.43127841 C1117.22875709 769.70302197 1117.2288227 765.97476552 1117.22892199 762.24650908 C1117.22982723 727.30159426 1117.21989583 692.35669029 1117.20449232 657.41177923 C1117.19086709 626.38682259 1117.18463119 595.36187366 1117.18530273 564.33691406 C1117.18534315 562.34441246 1117.18538351 560.35191086 1117.18542381 558.35940926 C1117.18544416 557.37433863 1117.18546452 556.38926801 1117.18548548 555.37434676 C1117.18558628 550.41529212 1117.18567686 545.45623749 1117.18575573 540.49718285 C1117.1857808 539.029559 1117.1857808 539.029559 1117.18580638 537.53228619 C1117.1861718 511.5816119 1117.18163022 485.63093856 1117.17542917 459.68026507 C1117.17509876 458.29504956 1117.17509876 458.29504956 1117.17476168 456.8818499 C1117.17387349 453.16862632 1117.17298507 449.45540274 1117.17207072 445.74217917 C1117.16891519 432.84145397 1117.16740203 419.94072953 1117.16695923 407.04000397 C1117.16636134 390.4139574 1117.16235115 373.78791718 1117.15252777 357.16187333 C1117.14742567 348.3757615 1117.14499909 339.58965898 1117.14652396 330.80354575 C1117.14726131 324.92718419 1117.14433301 319.05083166 1117.13848015 313.174473 C1117.13524759 309.83159508 1117.13407558 306.48875262 1117.13624074 303.14587145 C1118.26129241 279.51662075 1118.26129241 279.51662075 1113 257 C1112.43370338 254.30684888 1112.24140228 251.75198603 1112 249 C1111.34 249 1110.68 249 1110 249 C1110.10441406 247.80310547 1110.10441406 247.80310547 1110.2109375 246.58203125 C1109.9320752 241.84653622 1108.39000322 238.05448218 1106.625 233.6875 C1106.30789063 232.86443359 1105.99078125 232.04136719 1105.6640625 231.19335938 C1104.25180159 226.81739938 1104.25180159 226.81739938 1101 224 C1100 221.85546875 1100 221.85546875 1099 219.1875 C1097.80588472 216.02962483 1096.5633367 212.99406895 1095 210 C1094.34 210 1093.68 210 1093 210 C1092.74476563 209.09507812 1092.74476563 209.09507812 1092.484375 208.171875 C1091.02995377 203.37537946 1089.84723673 200.36633214 1086 197 C1084.9935725 195.33720673 1083.99414593 193.67016516 1083 192 C1081.42356195 189.87632708 1079.783456 187.96637456 1078 186 C1077.34 186 1076.68 186 1076 186 C1075.90050049 185.41371826 1075.80100098 184.82743652 1075.69848633 184.22338867 C1074.8656418 181.57231732 1073.776507 180.38929109 1071.82421875 178.42578125 C1071.16703857 177.76255859 1070.5098584 177.09933594 1069.83276367 176.41601562 C1068.77085815 175.37477539 1068.77085815 175.37477539 1067.6875 174.3125 C1066.96344971 173.59642578 1066.23939941 172.88035156 1065.4934082 172.14257812 C1059.68427412 166.48538807 1053.65778004 161.63633708 1047 157 C1045.10356781 155.5841351 1043.20772457 154.16748098 1041.3125 152.75 C1033.35687118 146.54372554 1033.35687118 146.54372554 1024 144 C1024 143.34 1024 142.68 1024 142 C1023.2575 141.71125 1022.515 141.4225 1021.75 141.125 C1019 140 1019 140 1016.875 138.875 C1014.89176146 137.78855727 1014.89176146 137.78855727 1012 138 C1012 137.34 1012 136.68 1012 136 C1004.64925625 133.28451906 997.85131668 131.34740339 990 131 C990 130.34 990 129.68 990 129 C989.07316406 128.86722656 988.14632812 128.73445312 987.19140625 128.59765625 C985.39509766 128.33275391 985.39509766 128.33275391 983.5625 128.0625 C982.36753906 127.88847656 981.17257812 127.71445313 979.94140625 127.53515625 C977 127 977 127 976 126 C962.15111929 124.22355041 947.93316347 124.85730206 934.00886536 124.86628723 C931.25893052 124.86496778 928.50899764 124.86215538 925.7590639 124.85942191 C919.7966016 124.85429178 913.83414741 124.85284654 907.87168312 124.85387802 C899.00477465 124.85540818 890.13787511 124.85122967 881.27096838 124.8460034 C864.51022227 124.8363499 847.74947922 124.83351991 830.98873065 124.83294634 C818.04255765 124.8324862 805.09638585 124.83042479 792.15021324 124.82724571 C788.41917489 124.82634813 784.68813654 124.82545831 780.95709819 124.82457083 C779.56565126 124.82423926 779.56565126 124.82423926 778.14609429 124.82390099 C752.06615298 124.81774985 725.98621209 124.81380012 699.90627003 124.81424427 C698.92369684 124.81425985 697.94112366 124.81427543 696.92877553 124.81429148 C691.94905881 124.81437458 686.96934209 124.81447362 681.98962537 124.81457619 C681.00069366 124.81459613 680.01176195 124.81461608 678.99286261 124.81463663 C676.99300359 124.81467706 674.99314458 124.81471886 672.99328557 124.81476202 C641.88150537 124.81537472 610.76973607 124.80786793 579.65795898 124.79418945 C544.67753679 124.77881632 509.69712175 124.77022395 474.71669596 124.77115268 C470.98408584 124.7712273 467.25147571 124.77127601 463.51886559 124.77130699 C462.14034248 124.77132447 462.14034248 124.77132447 460.73397042 124.77134231 C445.97020096 124.77137303 431.206441 124.7649981 416.44267436 124.75637473 C401.59580494 124.74788238 386.74894935 124.74692069 371.90207884 124.75348405 C363.09237092 124.75716898 354.28270513 124.75537902 345.4730017 124.74554171 C339.57570179 124.73951529 333.6784322 124.74086655 327.78113365 124.74801221 C324.42949166 124.75187137 321.07799652 124.75160845 317.72635017 124.74455485 C289.6074812 124.67980013 289.6074812 124.67980013 262.0625 129.8125 Z " fill="#000000" transform="translate(0,0)"/>
<path d="M0 0 C26.07 0 52.14 0 79 0 C83.57982627 4.57982627 87.78817733 8.88965288 91.96386719 13.73681641 C96.4744339 18.75035998 101.33845352 23.43924011 106.125 28.1875 C107.20726709 29.26473707 108.28929986 30.34220961 109.37109375 31.41992188 C111.35940254 33.40014254 113.34929366 35.37872012 115.34033203 37.35620117 C119.35441354 41.34633231 123.32706737 45.30885707 127.0625 49.5625 C131.07601351 54.05843918 135.25992192 58.3332741 139.57446289 62.53735352 C142.25008008 65.16557432 144.77069178 67.86182466 147.2109375 70.7109375 C151.70644511 75.90659545 156.60993627 80.67910266 161.5 85.5 C166.97925994 90.9017598 172.35842252 96.29603962 177.36425781 102.14160156 C180.13295271 105.28716955 183.13049813 108.19631136 186.125 111.125 C189.48721566 114.41428256 192.79686914 117.67153331 195.78125 121.3125 C197.86518481 124.02899494 197.86518481 124.02899494 200.375 125.875 C202.5530829 127.63820997 204.09107829 129.19636837 205.875 131.3125 C210.10424514 136.27767105 214.75201558 140.80587692 219.40576172 145.3684082 C222.50149499 148.42263399 225.4831068 151.50875752 228.3125 154.8125 C232.76776342 159.9794028 237.64428669 164.71296722 242.5 169.5 C252.66262821 179.51888524 252.66262821 179.51888524 256.34375 183.84375 C261.53206769 189.9018919 267.33097774 195.39748582 273 201 C285.8711191 213.72011714 285.8711191 213.72011714 291.1796875 219.95703125 C295.38996626 224.68230118 299.99596162 229.05634132 304.5 233.5 C310.36570453 239.28707076 316.18252167 245.05050508 321.54174805 251.31933594 C323.57952967 253.66791934 325.77616092 255.82803897 328 258 C329.16176515 259.17028 330.32178695 260.34229213 331.48046875 261.515625 C332.71610709 262.76045512 333.95178482 264.00524615 335.1875 265.25 C335.81591797 265.88679688 336.44433594 266.52359375 337.09179688 267.1796875 C337.69443359 267.78554688 338.29707031 268.39140625 338.91796875 269.015625 C339.46219482 269.56508789 340.0064209 270.11455078 340.56713867 270.68066406 C341.9838063 272.10726152 341.9838063 272.10726152 344 273 C344 182.91 344 92.82 344 0 C369.08 0 394.16 0 420 0 C420 126.39 420 252.78 420 383 C392.94 383 365.88 383 338 383 C310 355 310 355 303 347 C300.75856799 344.69314382 298.50859667 342.41312159 296.21875 340.15625 C295.60157104 339.54285767 294.98439209 338.92946533 294.34851074 338.29748535 C292.40145962 336.36249942 290.45117593 334.43082595 288.5 332.5 C273.73667055 317.89064618 273.73667055 317.89064618 268.54882812 311.77148438 C265.54813888 308.3394224 262.25294081 305.19062394 259 302 C254.30488301 297.39482778 249.79324466 292.73548507 245.54296875 287.71289062 C243.85956115 285.76239326 243.85956115 285.76239326 241 283.5 C238.62957587 281.52464656 236.87589681 279.7753424 234.9140625 277.44921875 C230.63355225 272.49952731 226.02372048 267.91400691 221.375 263.3125 C220.54226563 262.48427734 219.70953125 261.65605469 218.8515625 260.80273438 C214.18030509 256.15636286 214.18030509 256.15636286 209.4765625 251.54296875 C207.18451048 249.18945792 205.00372897 246.77427239 202.8203125 244.3203125 C198.031839 238.96872244 192.99024766 233.91239001 187.875 228.875 C178.37770247 219.52094979 178.37770247 219.52094979 174.5703125 215.0703125 C170.01379489 209.75770315 164.98009229 204.90999716 160 200 C154.4128597 194.49149908 148.90049117 188.98590158 143.796875 183.01953125 C140.06363526 178.82369441 135.99942929 174.93973632 132 171 C126.71922004 165.79803766 121.56390899 160.58895299 116.73828125 154.9609375 C113.49822325 151.30586083 109.98340125 147.92108638 106.5 144.5 C101.71016066 139.79584652 97.09898532 135.03971155 92.71923828 129.95068359 C89.84323099 126.68750577 86.77205377 123.6271748 83.6875 120.5625 C83.06810547 119.93923828 82.44871094 119.31597656 81.81054688 118.67382812 C81.21693359 118.08150391 80.62332031 117.48917969 80.01171875 116.87890625 C79.21447388 116.08335327 79.21447388 116.08335327 78.40112305 115.27172852 C77.00611595 113.89056415 77.00611595 113.89056415 75 113 C75 202.1 75 291.2 75 383 C50.25 383 25.5 383 0 383 C0 256.61 0 130.22 0 0 Z " fill="#1E2328" transform="translate(417,354)"/>
<path d="M0 0 C63.86161739 -0.0171305 127.72323506 -0.03303121 191.58485413 -0.04234314 C192.52924022 -0.0424812 193.47362632 -0.04261925 194.44663018 -0.04276149 C214.96810534 -0.04575404 235.48958054 -0.04852427 256.01105576 -0.05106533 C266.07402091 -0.05231272 276.13698604 -0.05360927 286.19995117 -0.05493164 C287.70207194 -0.05512778 287.70207194 -0.05512778 289.23453858 -0.05532788 C321.72376205 -0.0595932 354.21298379 -0.06710746 386.70220621 -0.07629722 C420.07456145 -0.08571969 453.44691573 -0.09188309 486.81927227 -0.09391499 C491.52724091 -0.09420317 496.23520954 -0.0945288 500.94317818 -0.09487724 C501.86982158 -0.09494467 502.79646497 -0.09501209 503.75118848 -0.09508156 C518.69898979 -0.09626567 533.64678814 -0.10091019 548.59458824 -0.10683203 C563.60314569 -0.11270471 578.61170019 -0.11497165 593.62025874 -0.11350138 C602.54940649 -0.11273778 611.47854348 -0.11479531 620.40768929 -0.12079754 C626.36088406 -0.12452779 632.31407172 -0.12467762 638.26726696 -0.12183181 C641.66664687 -0.12031181 645.06600634 -0.12042825 648.46538412 -0.12488318 C652.11471249 -0.12884239 655.7639865 -0.12676638 659.41331387 -0.12304783 C660.4855983 -0.12567484 661.55788273 -0.12830186 662.66266063 -0.13100848 C663.62529745 -0.12876118 664.58793426 -0.12651389 665.5797419 -0.1241985 C666.41564206 -0.12435448 667.25154223 -0.12451046 668.1127727 -0.12467116 C670 0 670 0 671 1 C672.80625018 1.20471212 674.61955053 1.34782256 676.43359375 1.46484375 C677.55830078 1.54283203 678.68300781 1.62082031 679.84179688 1.70117188 C682.20367216 1.85640648 684.56564929 2.01010054 686.92773438 2.16210938 C693.76128925 2.63886902 700.32615305 3.43892748 707 5 C707 5.66 707 6.32 707 7 C708.423125 6.9071875 708.423125 6.9071875 709.875 6.8125 C717.86680929 6.84459562 725.14170954 10.38580834 732.23828125 13.7265625 C736.42385776 15.65654544 740.70458817 17.33215029 745 19 C745 19.66 745 20.32 745 21 C745.8971875 21.2165625 745.8971875 21.2165625 746.8125 21.4375 C748.56150404 21.8872439 750.28677023 22.42892341 752 23 C752 23.66 752 24.32 752 25 C752.99 25 753.98 25 755 25 C755 25.66 755 26.32 755 27 C755.53625 27.103125 756.0725 27.20625 756.625 27.3125 C762.39373228 28.98239619 765.86311329 31.76461598 770 36 C771.96762518 37.5503741 773.97891959 39.03049488 775.99609375 40.515625 C778.77865057 42.5767782 781.42475116 44.68227604 784 47 C784 47.66 784 48.32 784 49 C784.5775 49.2475 785.155 49.495 785.75 49.75 C788.32939979 51.18299988 790.06121592 52.78424676 792 55 C792 55.66 792 56.32 792 57 C792.66 57 793.32 57 794 57 C795 58.66666667 796 60.33333333 797 62 C797.804375 62.804375 798.60875 63.60875 799.4375 64.4375 C803.68587659 68.68587659 806.52273491 73.55001681 809 79 C809 79.66 809 80.32 809 81 C809.66 81 810.32 81 811 81 C811.33 82.65 811.66 84.3 812 86 C812.66 86 813.32 86 814 86 C815.34326531 88.57858967 816.67474665 91.16217421 818 93.75 C818.57234375 94.84441406 818.57234375 94.84441406 819.15625 95.9609375 C819.69765625 97.02441406 819.69765625 97.02441406 820.25 98.109375 C820.58515625 98.75874023 820.9203125 99.40810547 821.265625 100.07714844 C822 102 822 102 822 106 C822.66 106 823.32 106 824 106 C829.37587413 121.48251748 829.37587413 121.48251748 829 129 C829.66 129 830.32 129 831 129 C831.06058594 129.63808594 831.12117188 130.27617187 831.18359375 130.93359375 C831.26738281 131.75988281 831.35117188 132.58617187 831.4375 133.4375 C831.51871094 134.26121094 831.59992187 135.08492187 831.68359375 135.93359375 C831.78930815 137.98662025 831.78930815 137.98662025 833 139 C833.07313567 141.53049402 833.09247527 144.03304837 833.0625 146.5625 C833.05798828 147.27341797 833.05347656 147.98433594 833.04882812 148.71679688 C833.03700864 150.47790013 833.01907263 152.23896036 833 154 C833.66 154 834.32 154 835 154 C835 382.36 835 610.72 835 846 C834.34 846 833.68 846 833 846 C833.01160156 846.96679688 833.02320313 847.93359375 833.03515625 848.9296875 C833.08665962 856.36088832 832.97283515 863.61687607 832 871 C831.01 871.33 830.02 871.66 829 872 C829.061875 873.5159375 829.061875 873.5159375 829.125 875.0625 C828.99426157 879.18076052 828.26749214 882.11830533 827 886 C826.34 886 825.68 886 825 886 C824.855625 887.0725 824.71125 888.145 824.5625 889.25 C824.16250558 891.91662949 823.72408076 894.41399729 823 897 C822.34 897 821.68 897 821 897 C820.34 899.97 819.68 902.94 819 906 C818.34 906 817.68 906 817 906 C816.87625 906.969375 816.7525 907.93875 816.625 908.9375 C816.41875 909.948125 816.2125 910.95875 816 912 C815.34 912.33 814.68 912.66 814 913 C812.87293294 915.11015954 812.87293294 915.11015954 811.875 917.5625 C811.52179687 918.38878906 811.16859375 919.21507812 810.8046875 920.06640625 C810.53914063 920.70449219 810.27359375 921.34257813 810 922 C809.34 922 808.68 922 808 922 C807.731875 922.804375 807.46375 923.60875 807.1875 924.4375 C806.5996875 925.7059375 806.5996875 925.7059375 806 927 C805.01 927.33 804.02 927.66 803 928 C802.8453125 929.1446875 802.8453125 929.1446875 802.6875 930.3125 C801.95288806 933.18416484 801.3283935 934.23042094 799 936 C798.34 936 797.68 936 797 936 C796.92813477 936.7223584 796.85626953 937.4447168 796.78222656 938.18896484 C795.77688705 941.80178606 794.14088296 943.3459593 791.484375 945.9765625 C790.56269531 946.894375 789.64101562 947.8121875 788.69140625 948.7578125 C788.20816895 949.22864258 787.72493164 949.69947266 787.22705078 950.18457031 C785.75822287 951.616981 784.30594416 953.0646574 782.85546875 954.515625 C778.75221027 958.56752141 775.04107731 962.15326766 770 965 C768.95763295 965.87068306 767.93324986 966.76386573 766.9375 967.6875 C764 970 764 970 760 970 C760 970.66 760 971.32 760 972 C755.12711522 975.5439162 749.84450583 978.46197215 744 980 C744 980.66 744 981.32 744 982 C742.02 982.33 740.04 982.66 738 983 C738 983.66 738 984.32 738 985 C737.31292969 985.19335938 736.62585937 985.38671875 735.91796875 985.5859375 C735.01691406 985.84632813 734.11585938 986.10671875 733.1875 986.375 C731.84751953 986.75785156 731.84751953 986.75785156 730.48046875 987.1484375 C727.79532104 987.95266661 727.79532104 987.95266661 725 990 C723.26579403 990.5522949 721.51275159 991.04700239 719.75 991.5 C716.58034336 992.31945191 713.4885448 993.16754567 710.375 994.1875 C706.18157857 995.19702738 702.28851926 995.1750416 698 995 C698 995.66 698 996.32 698 997 C692.72 997 687.44 997 682 997 C682 997.99 682 998.98 682 1000 C452.98 1000 223.96 1000 -12 1000 C-12 999.01 -12 998.02 -12 997 C-13.134375 997.01160156 -14.26875 997.02320313 -15.4375 997.03515625 C-16.95833167 997.0445441 -18.47916514 997.05364322 -20 997.0625 C-20.74378906 997.07087891 -21.48757813 997.07925781 -22.25390625 997.08789062 C-29.43054777 997.11909341 -35.89915177 996.62586942 -42.63671875 993.8984375 C-47.66088646 991.98842333 -52.85425367 990.54529272 -58 989 C-58 988.34 -58 987.68 -58 987 C-59.5778125 986.814375 -59.5778125 986.814375 -61.1875 986.625 C-64.45958771 986.08859218 -67.00536076 985.36119965 -70 984 C-70 983.34 -70 982.68 -70 982 C-71.98 981.67 -73.96 981.34 -76 981 C-76 980.34 -76 979.68 -76 979 C-76.78375 978.855625 -77.5675 978.71125 -78.375 978.5625 C-81 978 -81 978 -83 977 C-83 976.34 -83 975.68 -83 975 C-83.845625 974.773125 -84.69125 974.54625 -85.5625 974.3125 C-89.02492585 972.99048286 -91.42148727 971.41950519 -94.3515625 969.21875 C-96.08493303 967.89317968 -96.08493303 967.89317968 -98.4375 966.5625 C-103.67117019 963.37123769 -108.99314778 959.67466092 -113 955 C-113 954.34 -113 953.68 -113 953 C-114.32 952.34 -115.64 951.68 -117 951 C-117 950.34 -117 949.68 -117 949 C-117.99 948.67 -118.98 948.34 -120 948 C-121.53515625 946.40625 -121.53515625 946.40625 -123.0625 944.5 C-125.17721767 941.81893599 -125.17721767 941.81893599 -128 940 C-128.33333333 938.66666667 -128.66666667 937.33333333 -129 936 C-129.66 935.67 -130.32 935.34 -131 935 C-131 934.34 -131 933.68 -131 933 C-131.99 932.67 -132.98 932.34 -134 932 C-134.495 929.525 -134.495 929.525 -135 927 C-135.66 927 -136.32 927 -137 927 C-138.40234375 924.98828125 -138.40234375 924.98828125 -139.9375 922.3125 C-140.44152344 921.44238281 -140.94554687 920.57226562 -141.46484375 919.67578125 C-141.97144531 918.79277344 -142.47804687 917.90976563 -143 917 C-143.83724609 915.69095703 -143.83724609 915.69095703 -144.69140625 914.35546875 C-146 912 -146 912 -146 909 C-146.66 909 -147.32 909 -148 909 C-148.33 907.02 -148.66 905.04 -149 903 C-149.66 903 -150.32 903 -151 903 C-151.84124316 900.75267898 -152.67314832 898.50261215 -153.5 896.25 C-153.73847656 895.61578125 -153.97695312 894.9815625 -154.22265625 894.328125 C-155.44801758 890.96713393 -156 888.63128413 -156 885 C-156.66 885 -157.32 885 -158 885 C-159.75747614 880.49646738 -160.19294408 876.82360189 -160 872 C-160.66 872 -161.32 872 -162 872 C-162 868.7 -162 865.4 -162 862 C-162.66 862 -163.32 862 -164 862 C-164 856.72 -164 851.44 -164 846 C-164.66 846 -165.32 846 -166 846 C-166 617.64 -166 389.28 -166 154 C-165.34 154 -164.68 154 -164 154 C-164.01160156 152.92878906 -164.02320313 151.85757813 -164.03515625 150.75390625 C-164.04453299 149.35677257 -164.05363331 147.95963701 -164.0625 146.5625 C-164.07087891 145.85544922 -164.07925781 145.14839844 -164.08789062 144.41992188 C-164.09653588 142.61306441 -164.05220011 140.80612397 -164 139 C-163.67 138.67 -163.34 138.34 -163 138 C-162.76719635 136.0710555 -162.53640466 134.14182553 -162.3203125 132.2109375 C-161.85841935 129.02274818 -160.96005831 126.07218658 -160 123 C-159.34 123 -158.68 123 -158 123 C-157.93941406 122.39671875 -157.87882813 121.7934375 -157.81640625 121.171875 C-157.73261719 120.37265625 -157.64882812 119.5734375 -157.5625 118.75 C-157.48128906 117.96109375 -157.40007812 117.1721875 -157.31640625 116.359375 C-157.02365007 114.17635361 -156.57935581 112.1226818 -156 110 C-155.34 110 -154.68 110 -154 110 C-153.67 107.36 -153.34 104.72 -153 102 C-152.34 102 -151.68 102 -151 102 C-151 101.01 -151 100.02 -151 99 C-150.34 99 -149.68 99 -149 99 C-148.34 96.03 -147.68 93.06 -147 90 C-146.34 90 -145.68 90 -145 90 C-144.88785156 89.27425781 -144.77570313 88.54851562 -144.66015625 87.80078125 C-143.97038613 84.87436007 -142.94489186 82.77712191 -141.4375 80.1875 C-140.98246094 79.39730469 -140.52742188 78.60710937 -140.05859375 77.79296875 C-139.70925781 77.20128906 -139.35992187 76.60960937 -139 76 C-138.34 76 -137.68 76 -137 76 C-136.34 74.35 -135.68 72.7 -135 71 C-134.34 71 -133.68 71 -133 71 C-132.67 69.35 -132.34 67.7 -132 66 C-131.34 66 -130.68 66 -130 66 C-130 65.34 -130 64.68 -130 64 C-129.34 64 -128.68 64 -128 64 C-127.72800781 63.41089844 -127.45601562 62.82179687 -127.17578125 62.21484375 C-123.6764228 55.623029 -117.47842947 50.3176773 -112.3125 45 C-111.75393311 44.41162354 -111.19536621 43.82324707 -110.61987305 43.21704102 C-109.15585661 41.7324324 -107.582791 40.35726914 -106 39 C-104.68 39 -103.36 39 -102 39 C-101.62875 38.0409375 -101.62875 38.0409375 -101.25 37.0625 C-100 35 -100 35 -97.9375 34.4375 C-97.298125 34.293125 -96.65875 34.14875 -96 34 C-95.67 33.01 -95.34 32.02 -95 31 C-93.37353516 29.74145508 -93.37353516 29.74145508 -91.2890625 28.51953125 C-90.53882813 28.07802734 -89.78859375 27.63652344 -89.015625 27.18164062 C-88.22671875 26.72982422 -87.4378125 26.27800781 -86.625 25.8125 C-85.84382813 25.34908203 -85.06265625 24.88566406 -84.2578125 24.40820312 C-78.39510079 21 -78.39510079 21 -75 21 C-75 20.34 -75 19.68 -75 19 C-68.38579257 15.82309722 -61.78294397 13.13692405 -54.7890625 10.9140625 C-52.36630473 10.12004945 -50.04195506 9.22268993 -47.6875 8.25 C-43.70625739 6.90042623 -41.13457257 6.74158921 -37 7 C-37 6.34 -37 5.68 -37 5 C-30.95170514 4.10395632 -25.1105424 3.88730557 -19 4 C-19 3.34 -19 2.68 -19 2 C-12.73 2 -6.46 2 0 2 C0 1.34 0 0.68 0 0 Z M-29.9375 12.8125 C-30.89624023 13.07458252 -31.85498047 13.33666504 -32.84277344 13.60668945 C-45.99729737 16.81451396 -45.99729737 16.81451396 -57 24 C-58.89817836 24.73263024 -60.79895832 25.45954136 -62.71484375 26.14453125 C-69.98126439 28.86478103 -76.31283286 32.73293171 -82.625 37.1875 C-83.2535791 37.62779541 -83.8821582 38.06809082 -84.52978516 38.52172852 C-86.06008579 39.62751195 -87.53585226 40.80800653 -89 42 C-89 42.66 -89 43.32 -89 44 C-89.721875 44.2475 -90.44375 44.495 -91.1875 44.75 C-94.27606582 46.12269592 -96.51011418 47.72353296 -99 50 C-99 50.66 -99 51.32 -99 52 C-99.56976563 52.24363281 -100.13953125 52.48726562 -100.7265625 52.73828125 C-107.51069726 56.50335948 -116.49828246 65.49484738 -119 73 C-120.33051147 74.33614923 -121.66424902 75.6690887 -123 77 C-124.21283654 78.76074077 -125.37832532 80.5548279 -126.5 82.375 C-128.40897866 85.45810316 -130.32149789 88.49316966 -132.4375 91.4375 C-134.34707162 94.06898048 -134.34707162 94.06898048 -134 98 C-134.66 98 -135.32 98 -136 98 C-136.33 99.65 -136.66 101.3 -137 103 C-137.66 103 -138.32 103 -139 103 C-139.66 105.97 -140.32 108.94 -141 112 C-141.66 112 -142.32 112 -143 112 C-145.91956009 119.69840893 -148.40760222 127.44731235 -150.625 135.375 C-150.9240625 136.40882813 -151.223125 137.44265625 -151.53125 138.5078125 C-154.75649283 149.98168524 -156.30515962 161.17288977 -156.25168228 173.08382988 C-156.25458916 174.23229977 -156.25749604 175.38076966 -156.26049101 176.56404167 C-156.26776011 180.39275493 -156.26086199 184.22130636 -156.25396729 188.05001831 C-156.25516469 190.83066615 -156.25936844 193.61130769 -156.26342177 196.39195263 C-156.27062411 202.42758818 -156.270439 208.46318791 -156.26532745 214.49882507 C-156.25774694 223.47429807 -156.26163807 232.44974098 -156.26774407 241.42521378 C-156.27826554 257.45811264 -156.27736669 273.49099555 -156.27158624 289.52389592 C-156.26655213 303.55593196 -156.26524313 317.58796217 -156.26763153 331.61999893 C-156.2677843 332.55132618 -156.26793707 333.48265342 -156.26809447 334.4422027 C-156.26871717 338.22292949 -156.26935397 342.00365628 -156.270014 345.78438307 C-156.27613028 381.24179956 -156.27058798 416.6992059 -156.2598202 452.15662082 C-156.25033076 483.6439701 -156.25117714 515.13130321 -156.26074219 546.61865234 C-156.27145692 582.00882914 -156.27569492 617.39899696 -156.26951766 652.78917515 C-156.26887624 656.56357328 -156.26825056 660.33797141 -156.26763153 664.11236954 C-156.26747338 665.04169711 -156.26731522 665.97102469 -156.26715227 666.9285137 C-156.26487943 680.94879345 -156.26753399 694.9690667 -156.27259064 708.98934555 C-156.27831348 724.93610067 -156.27687032 740.88283736 -156.26602915 756.82959019 C-156.26016494 765.7492048 -156.25976113 774.66877949 -156.2673215 783.58839305 C-156.27181835 789.55264555 -156.26899336 795.51686615 -156.26031196 801.48111394 C-156.25557212 804.87512956 -156.25500098 808.26900142 -156.26112393 811.66302441 C-156.73479064 834.43063581 -156.73479064 834.43063581 -151.796875 856.4609375 C-149.91171634 862.46757048 -149.07164078 868.80576426 -148 875 C-147.34 875 -146.68 875 -146 875 C-146 876.32 -146 877.64 -146 879 C-145.34 879 -144.68 879 -144 879 C-143.814375 880.5778125 -143.814375 880.5778125 -143.625 882.1875 C-143.08859218 885.45958771 -142.36119965 888.00536076 -141 891 C-140.34 891 -139.68 891 -139 891 C-138.82210937 891.81404297 -138.82210937 891.81404297 -138.640625 892.64453125 C-136.39416084 900.90439644 -132.34961153 908.67044184 -128 916 C-127.34 916 -126.68 916 -126 916 C-125.9175 916.55429688 -125.835 917.10859375 -125.75 917.6796875 C-124.75241938 920.76595255 -123.08372153 922.64334554 -121 925.125 C-120.19304687 926.08664062 -119.38609375 927.04828125 -118.5546875 928.0390625 C-111.04639786 937.60806493 -111.04639786 937.60806493 -101.8125 945.25 C-99.39390204 946.7549054 -97.53941673 948.23240278 -95.4375 950.125 C-79.60695638 964.20319451 -60.25588417 975.56062941 -40 982 C-39.1028125 982.28617188 -38.205625 982.57234375 -37.28125 982.8671875 C-30.27056975 985.14954141 -30.27056975 985.14954141 -23 986 C-20.23077836 986.77801941 -17.47920194 987.606711 -14.7265625 988.44140625 C-11.93534409 989.01324612 -10.64588633 988.89312619 -8 988 C-6.00211562 987.65421232 -4.00240549 987.31856451 -2 987 C-2 987.66 -2 988.32 -2 989 C10.86515981 991.86160585 23.98516725 991.27849895 37.08314514 991.25396729 C39.75868803 991.25627311 42.43421953 991.25936877 45.10975927 991.26342177 C50.91566441 991.27062206 56.7215323 991.27044027 62.52743912 991.26532745 C71.16114619 991.25774515 79.79482201 991.26163895 88.42852889 991.26774407 C103.85033563 991.27826372 119.27212578 991.27736751 134.69393408 991.27158624 C148.18931861 991.26655207 161.68469705 991.26524316 175.18008232 991.26763153 C176.07579992 991.2677843 176.97151752 991.26793707 177.89437808 991.26809447 C181.53051796 991.26871716 185.16665784 991.26935396 188.80279771 991.270014 C222.90067938 991.27612969 256.9985505 991.27058864 291.09643054 991.2598202 C321.3820824 991.25032844 351.66771743 991.2511792 381.95336914 991.26074219 C415.99101454 991.27145401 450.02865062 991.27569675 484.06629747 991.26951766 C487.69544279 991.26887624 491.32458812 991.26825056 494.95373344 991.26763153 C495.84730137 991.26747338 496.74086931 991.26731522 497.66151505 991.26715227 C511.1482225 991.26487847 524.6349232 991.26753574 538.12162971 991.27259064 C553.45765358 991.27831006 568.79365827 991.27687749 584.12967975 991.26602915 C592.70999261 991.26015966 601.29026396 991.2597688 609.87057574 991.2673215 C615.60483023 991.27181187 621.33905149 991.26900499 627.07330107 991.26031196 C630.33839996 991.25556327 633.60340036 991.25501433 636.86849941 991.26112393 C640.39230613 991.26721186 643.91588792 991.26096044 647.43968296 991.25168228 C648.94624646 991.25870578 648.94624646 991.25870578 650.48324558 991.26587117 C657.48295733 991.22907521 664.13118504 990.32712204 671 989 C671 988.34 671 987.68 671 987 C672.11375 987.185625 673.2275 987.37125 674.375 987.5625 C685.05409654 988.73211533 697.11565387 988.41265452 707 984 C707.66 983.34 708.32 982.68 709 982 C711.37809053 980.59076117 713.51377063 979.86073617 716.19921875 979.1328125 C726.62927161 976.02416365 736.10990667 970.58277036 745.1953125 964.69921875 C748 963 748 963 750.51953125 962.0078125 C761.41693151 957.58020736 769.40570869 947.58071726 777 939 C777.60714844 938.41992188 778.21429687 937.83984375 778.83984375 937.2421875 C780.22752129 936.03967528 780.22752129 936.03967528 780 934 C780.66 934 781.32 934 782 934 C783.44526736 932.26451831 784.8087222 930.46024037 786.125 928.625 C786.84945312 927.62726562 787.57390625 926.62953125 788.3203125 925.6015625 C790.18080472 923.23607762 790.18080472 923.23607762 790 921 C790.639375 920.814375 791.27875 920.62875 791.9375 920.4375 C794.42126213 919.05753944 794.42126213 919.05753944 794.75 915.375 C794.8325 914.26125 794.915 913.1475 795 912 C796.35931641 911.71769531 796.35931641 911.71769531 797.74609375 911.4296875 C801.93449975 909.58940347 803.17543011 907.07348863 805.0625 903.125 C805.39830078 902.45750732 805.73410156 901.79001465 806.08007812 901.10229492 C811.76301518 890.50577701 811.76301518 890.50577701 814 879 C814.66 879 815.32 879 816 879 C816.33 877.7625 816.66 876.525 817 875.25 C817.185625 874.55390625 817.37125 873.8578125 817.5625 873.140625 C818.13349349 870.71098139 818.13349349 870.71098139 818 867 C818.66 867 819.32 867 820 867 C820.46357357 863.87575569 820.91974989 860.7504671 821.375 857.625 C821.56449219 856.34882812 821.56449219 856.34882812 821.7578125 855.046875 C822.1944569 852.03402863 822.59666071 849.01749603 823 846 C823.16894958 844.81269212 823.33789917 843.62538425 823.51196843 842.40209734 C825.35867831 828.51709646 825.27669894 814.68227398 825.24723816 800.69711304 C825.24771673 797.94998628 825.25121191 795.20286513 825.25455457 792.45574057 C825.26020582 786.50880859 825.25852268 780.56191494 825.2518692 774.61498451 C825.24200251 765.77144354 825.24369651 756.92793033 825.2476195 748.08438606 C825.25387914 733.19978963 825.25074066 718.31520909 825.24202538 703.43061447 C825.23339753 688.69180529 825.22850553 673.95300326 825.22869301 659.21419144 C825.22870065 658.29583014 825.2287083 657.37746884 825.22871618 656.43127841 C825.22875709 652.70302197 825.2288227 648.97476552 825.22892199 645.24650908 C825.22982723 610.30159426 825.21989583 575.35669029 825.20449232 540.41177923 C825.19086709 509.38682259 825.18463119 478.36187366 825.18530273 447.33691406 C825.18534315 445.34441246 825.18538351 443.35191086 825.18542381 441.35940926 C825.18544416 440.37433863 825.18546452 439.38926801 825.18548548 438.37434676 C825.18558628 433.41529212 825.18567686 428.45623749 825.18575573 423.49718285 C825.1857808 422.029559 825.1857808 422.029559 825.18580638 420.53228619 C825.1861718 394.5816119 825.18163022 368.63093856 825.17542917 342.68026507 C825.17509876 341.29504956 825.17509876 341.29504956 825.17476168 339.8818499 C825.17387349 336.16862632 825.17298507 332.45540274 825.17207072 328.74217917 C825.16891519 315.84145397 825.16740203 302.94072953 825.16695923 290.04000397 C825.16636134 273.4139574 825.16235115 256.78791718 825.15252777 240.16187333 C825.14742567 231.3757615 825.14499909 222.58965898 825.14652396 213.80354575 C825.14726131 207.92718419 825.14433301 202.05083166 825.13848015 196.174473 C825.13524759 192.83159508 825.13407558 189.48875262 825.13624074 186.14587145 C826.26129241 162.51662075 826.26129241 162.51662075 821 140 C820.43370338 137.30684888 820.24140228 134.75198603 820 132 C819.34 132 818.68 132 818 132 C818.10441406 130.80310547 818.10441406 130.80310547 818.2109375 129.58203125 C817.9320752 124.84653622 816.39000322 121.05448218 814.625 116.6875 C814.30789063 115.86443359 813.99078125 115.04136719 813.6640625 114.19335938 C812.25180159 109.81739938 812.25180159 109.81739938 809 107 C808 104.85546875 808 104.85546875 807 102.1875 C805.80588472 99.02962483 804.5633367 95.99406895 803 93 C802.34 93 801.68 93 801 93 C800.74476563 92.09507812 800.74476563 92.09507812 800.484375 91.171875 C799.02995377 86.37537946 797.84723673 83.36633214 794 80 C792.9935725 78.33720673 791.99414593 76.67016516 791 75 C789.42356195 72.87632708 787.783456 70.96637456 786 69 C785.34 69 784.68 69 784 69 C783.90050049 68.41371826 783.80100098 67.82743652 783.69848633 67.22338867 C782.8656418 64.57231732 781.776507 63.38929109 779.82421875 61.42578125 C779.16703857 60.76255859 778.5098584 60.09933594 777.83276367 59.41601562 C776.77085815 58.37477539 776.77085815 58.37477539 775.6875 57.3125 C774.96344971 56.59642578 774.23939941 55.88035156 773.4934082 55.14257812 C767.68427412 49.48538807 761.65778004 44.63633708 755 40 C753.10356781 38.5841351 751.20772457 37.16748098 749.3125 35.75 C741.35687118 29.54372554 741.35687118 29.54372554 732 27 C732 26.34 732 25.68 732 25 C731.2575 24.71125 730.515 24.4225 729.75 24.125 C727 23 727 23 724.875 21.875 C722.89176146 20.78855727 722.89176146 20.78855727 720 21 C720 20.34 720 19.68 720 19 C712.64925625 16.28451906 705.85131668 14.34740339 698 14 C698 13.34 698 12.68 698 12 C697.07316406 11.86722656 696.14632812 11.73445312 695.19140625 11.59765625 C693.39509766 11.33275391 693.39509766 11.33275391 691.5625 11.0625 C690.36753906 10.88847656 689.17257812 10.71445313 687.94140625 10.53515625 C685 10 685 10 684 9 C670.15111929 7.22355041 655.93316347 7.85730206 642.00886536 7.86628723 C639.25893052 7.86496778 636.50899764 7.86215538 633.7590639 7.85942191 C627.7966016 7.85429178 621.83414741 7.85284654 615.87168312 7.85387802 C607.00477465 7.85540818 598.13787511 7.85122967 589.27096838 7.8460034 C572.51022227 7.8363499 555.74947922 7.83351991 538.98873065 7.83294634 C526.04255765 7.8324862 513.09638585 7.83042479 500.15021324 7.82724571 C496.41917489 7.82634813 492.68813654 7.82545831 488.95709819 7.82457083 C487.56565126 7.82423926 487.56565126 7.82423926 486.14609429 7.82390099 C460.06615298 7.81774985 433.98621209 7.81380012 407.90627003 7.81424427 C406.92369684 7.81425985 405.94112366 7.81427543 404.92877553 7.81429148 C399.94905881 7.81437458 394.96934209 7.81447362 389.98962537 7.81457619 C389.00069366 7.81459613 388.01176195 7.81461608 386.99286261 7.81463663 C384.99300359 7.81467706 382.99314458 7.81471886 380.99328557 7.81476202 C349.88150537 7.81537472 318.76973607 7.80786793 287.65795898 7.79418945 C252.67753679 7.77881632 217.69712175 7.77022395 182.71669596 7.77115268 C178.98408584 7.7712273 175.25147571 7.77127601 171.51886559 7.77130699 C170.14034248 7.77132447 170.14034248 7.77132447 168.73397042 7.77134231 C153.97020096 7.77137303 139.206441 7.7649981 124.44267436 7.75637473 C109.59580494 7.74788238 94.74894935 7.74692069 79.90207884 7.75348405 C71.09237092 7.75716898 62.28270513 7.75537902 53.4730017 7.74554171 C47.57570179 7.73951529 41.6784322 7.74086655 35.78113365 7.74801221 C32.42949166 7.75187137 29.07799652 7.75160845 25.72635017 7.74455485 C-2.3925188 7.67980013 -2.3925188 7.67980013 -29.9375 12.8125 Z " fill="#1B1F24" transform="translate(292,117)"/>
<path d="M0 0 C138.93 0 277.86 0 421 0 C421 14.19 421 28.38 421 43 C282.07 43 143.14 43 0 43 C0 28.81 0 14.62 0 0 Z " fill="#035EFD" transform="translate(416,827)"/>
<path d="M0 0 C0.8638848 3.20054265 1.05523693 5.81056166 0.87890625 9.1328125 C0.83056641 10.10347656 0.78222656 11.07414062 0.73242188 12.07421875 C0.67634766 13.08097656 0.62027344 14.08773438 0.5625 15.125 C0.459444 17.12759433 0.35657024 19.13019804 0.25390625 21.1328125 C0.20564697 22.01855957 0.1573877 22.90430664 0.10766602 23.81689453 C-0.00868271 26.17605617 0.00375071 28.01777674 0.49346018 30.33878762 C0.9691715 32.83803606 1.1176909 35.04217676 1.10463715 37.57939816 C1.1025283 38.47575967 1.10041945 39.37212119 1.09824669 40.29564518 C1.09076059 41.27339706 1.08327448 42.25114894 1.07556152 43.25852966 C1.07162506 44.30738816 1.0676886 45.35624666 1.06363285 46.43688875 C1.04916347 49.97676367 1.02743114 53.51655824 1.00585938 57.05639648 C0.99408424 59.61257465 0.98279933 62.16875512 0.97196388 64.72493744 C0.94773082 70.30119521 0.91999469 75.87742679 0.89014053 81.45365715 C0.84163967 90.55107477 0.80195984 99.64852151 0.76364136 108.74598694 C0.75013594 111.93326865 0.73659565 115.12055021 0.72305489 118.30783176 C0.71965746 119.1092937 0.71626004 119.91075564 0.71275967 120.7365043 C0.68799038 126.56334514 0.66236156 132.39018182 0.63633537 138.21701717 C0.46213467 177.25786674 0.31412013 216.29878524 0.1953125 255.33984375 C0.19249049 256.26432192 0.18966848 257.18880009 0.18676096 258.14129275 C-0.08267188 346.81058799 0.05926932 435.47806908 0.33136927 524.14719031 C0.3357303 525.56841937 0.3357303 525.56841937 0.34017944 527.01836014 C0.34308424 527.9650004 0.34598905 528.91164067 0.34898187 529.886967 C0.36950657 536.61066086 0.3889859 543.33435721 0.40786743 550.05805588 C0.41187766 551.48560995 0.41187766 551.48560995 0.4159689 552.94200351 C0.41863644 553.89196107 0.42130398 554.84191864 0.42405236 555.8206628 C0.48264564 576.68526284 0.54871639 597.54982571 0.62248721 618.41437757 C0.6429579 624.25504299 0.66123768 630.09571274 0.67864609 635.93638802 C0.69952902 642.91178814 0.72397211 649.88716459 0.75320537 656.86253492 C0.7678911 660.38224901 0.78104108 663.90195028 0.78995228 667.42168415 C0.79960305 671.20624184 0.81689395 674.99074156 0.83505249 678.77526855 C0.83671287 679.88232369 0.83837326 680.98937883 0.84008396 682.1299811 C0.84617494 683.13305833 0.85226593 684.13613556 0.85854149 685.16960907 C0.8617416 686.03663185 0.86494172 686.90365462 0.86823881 687.79695082 C0.91514728 690.17715105 0.91514728 690.17715105 2 693 C2.01960399 694.70834788 1.99344518 696.41745587 1.9375 698.125 C1.87425612 703.40235041 2.66363761 707.90511837 4 713 C3.01 713 2.02 713 1 713 C-3.71854304 696.48509934 -3.2869193 679.73861052 -3.26069641 662.71620178 C-3.2626149 659.93454005 -3.26752942 657.15288533 -3.27228898 654.3712272 C-3.28101681 648.33954914 -3.28237532 642.30790503 -3.27878571 636.27622223 C-3.27346183 627.30660803 -3.27959085 618.33702651 -3.28786864 609.36741586 C-3.30308526 592.41390036 -3.30481617 575.46039982 -3.30234561 558.50687892 C-3.30051105 545.41431248 -3.30227598 532.32175093 -3.30657005 519.2291851 C-3.30717246 517.34641585 -3.30777366 515.4636466 -3.30837366 513.58087735 C-3.30928093 510.74354455 -3.3101896 507.90621175 -3.31110601 505.06887896 C-3.31953185 478.69957286 -3.32387372 452.3302686 -3.31969929 425.96096134 C-3.31954291 424.96750726 -3.31938654 423.97405318 -3.31922542 422.95049443 C-3.31841967 417.91557001 -3.3175739 412.8806456 -3.31671212 407.84572119 C-3.31654103 406.84581411 -3.31636994 405.84590703 -3.31619367 404.81569974 C-3.31584701 402.79364736 -3.31549848 400.77159499 -3.31514808 398.74954261 C-3.30979014 367.28199194 -3.31772489 335.81446928 -3.33618164 304.34692383 C-3.35690575 268.97246979 -3.36762369 233.59803312 -3.36360615 198.22357267 C-3.36321082 194.450592 -3.36284927 190.67761133 -3.36250877 186.90463066 C-3.36237268 185.51117994 -3.36237268 185.51117994 -3.36223383 184.08957869 C-3.36106883 170.07812981 -3.36770866 156.06669848 -3.37832069 142.05525398 C-3.39037883 126.11845157 -3.39192444 110.18168779 -3.37953053 94.2448848 C-3.37290899 85.33211595 -3.37451675 76.4194395 -3.38811904 67.50667808 C-3.39638065 61.54578371 -3.39364383 55.58495834 -3.38214377 49.62406954 C-3.37590428 46.23277543 -3.375915 42.84180761 -3.38600711 39.45050121 C-3.42331484 25.97560195 -3.32773472 13.12447133 0 0 Z " fill="#E1E0DF" transform="translate(139,262)"/>
<path d="M0 0 C3.1338651 3.41950758 3.46168649 5.97998087 3.67956352 10.55397511 C3.71267295 11.24333717 3.74578238 11.93269924 3.77989512 12.64295106 C4.25758854 24.13046852 4.13748514 35.64183511 4.12698364 47.13639832 C4.12758301 49.88963675 4.12968525 52.6428736 4.13171089 55.39611131 C4.13530575 61.3622922 4.13522342 67.32846402 4.13266373 73.29464531 C4.12886789 82.16626251 4.13082183 91.03787213 4.13387203 99.90948928 C4.13912749 115.7547152 4.13868566 131.59993707 4.13579312 147.44516336 C4.13327548 161.30490195 4.13262185 175.16463906 4.13381577 189.02437782 C4.13389215 189.94447297 4.13396854 190.86456812 4.13404724 191.81254495 C4.13435858 195.54758764 4.13467698 199.28263034 4.135007 203.01767304 C4.13806355 238.02767068 4.13529591 273.03766576 4.1299101 308.04766301 C4.1251604 339.15946226 4.12559306 370.27125742 4.13037109 401.38305664 C4.13572272 436.3464943 4.13785112 471.30992969 4.13475883 506.2733677 C4.13443811 509.99811033 4.13412527 513.72285296 4.13381577 517.4475956 C4.13373669 518.36470954 4.13365761 519.28182349 4.13357614 520.22672877 C4.13243786 534.08618821 4.13377035 547.945646 4.13629532 561.80510521 C4.13914997 577.55261037 4.13844938 593.30011086 4.13301457 609.04761543 C4.13007208 617.86491401 4.1298956 626.68220249 4.13366075 635.49950081 C4.13589645 641.38267986 4.13451972 647.26585078 4.13015598 653.14902862 C4.12776854 656.50485933 4.12752656 659.86065329 4.13056196 663.216486 C4.13357761 666.82564447 4.13050919 670.43474691 4.12584114 674.0439024 C4.12818231 675.09308349 4.13052347 676.14226458 4.13293558 677.22323903 C4.13043207 678.18359834 4.12792855 679.14395764 4.12534916 680.13341874 C4.1252814 680.95887592 4.12521365 681.7843331 4.12514383 682.63480414 C3.99108193 685.16854995 3.55430863 687.52690531 3 690 C2.67 690 2.34 690 2 690 C2.01160156 689.30132813 2.02320313 688.60265625 2.03515625 687.8828125 C2.04417969 686.97273437 2.05320312 686.06265625 2.0625 685.125 C2.07410156 684.22007812 2.08570313 683.31515625 2.09765625 682.3828125 C2.16249257 679.9831415 2.16249257 679.9831415 1 678 C0.90664249 676.4900292 0.87626359 674.97596001 0.87695217 673.4631061 C0.8749611 672.49991163 0.87297004 671.53671716 0.87091863 670.54433498 C0.87383149 669.47656775 0.87674435 668.40880053 0.87974548 667.30867672 C0.87889124 666.17714663 0.87803699 665.04561655 0.87715685 663.87979767 C0.87578799 660.71562988 0.87894515 657.55150242 0.88393517 654.3873394 C0.88825383 650.9538524 0.88678496 647.52036731 0.88602352 644.08687836 C0.88548914 638.06154666 0.88867522 632.0362257 0.89425278 626.01089668 C0.9025233 617.05131736 0.90507212 608.09174293 0.90637711 599.13216022 C0.90871516 584.06244837 0.91557297 568.99274179 0.92483521 553.92303276 C0.93741945 533.35015258 0.94347633 512.77727417 0.94776857 492.20439077 C0.94977517 482.62870513 0.95210257 473.05301957 0.95451355 463.47733402 C0.95475456 462.51864641 0.95499558 461.55995879 0.95524389 460.57222004 C0.96105843 437.74028448 0.97001518 414.90835031 0.97949219 392.07641602 C0.97990583 391.07706279 0.98031948 390.07770956 0.98074566 389.04807289 C0.98704261 373.84454854 0.99350304 358.64102427 1 343.4375 C1.00692896 327.22273767 1.01379733 311.00797531 1.02050781 294.79321289 C1.0209224 293.7942356 1.02133699 292.79525831 1.02176414 291.76600898 C1.03120675 268.97263064 1.03975606 246.17925245 1.04548645 223.38587284 C1.04572744 222.42874537 1.04596844 221.47161789 1.04621673 220.48548655 C1.04860166 210.93208434 1.05082963 201.37868211 1.05282298 191.82527981 C1.05714641 171.27166561 1.06424031 150.71805757 1.07687083 130.16444669 C1.0860343 115.18525955 1.09180568 100.20607448 1.09398818 85.22688466 C1.09540793 76.3155001 1.09968868 67.40412712 1.10793434 58.49274622 C1.11316418 52.55146422 1.1148262 46.61018839 1.11350765 40.66890426 C1.1128624 37.27636244 1.11385984 33.88384161 1.1192044 30.4913035 C1.12412243 26.84934578 1.12300755 23.20744087 1.12025452 19.56548214 C1.12316738 18.49537375 1.12608024 17.42526536 1.12908137 16.32272944 C1.1270903 15.36203849 1.12509923 14.40134754 1.12304783 13.41154474 C1.12342755 12.5773399 1.12380727 11.74313506 1.1241985 10.88365128 C1.2069651 8.98728088 1.2069651 8.98728088 0 8 C-0.14115161 5.32941149 -0.04247107 2.67567762 0 0 Z " fill="#D8D7D7" transform="translate(1113,260)"/>
<path d="M0 0 C1.6396875 0.2475 1.6396875 0.2475 3.3125 0.5 C6.87525873 1.06718184 6.87525873 1.06718184 10 1 C11.91169739 1.61971088 13.80673201 2.29194617 15.6875 3 C16.68136719 3.37125 17.67523438 3.7425 18.69921875 4.125 C19.45847656 4.41375 20.21773438 4.7025 21 5 C21.33 4.34 21.66 3.68 22 3 C24.97 3 27.94 3 31 3 C31 3.66 31 4.32 31 5 C32.03060547 4.98259766 32.03060547 4.98259766 33.08203125 4.96484375 C33.98308594 4.95582031 34.88414062 4.94679688 35.8125 4.9375 C36.70582031 4.92589844 37.59914063 4.91429687 38.51953125 4.90234375 C41 5 41 5 44 6 C45.50551068 6.0907189 47.01474632 6.12522256 48.52298778 6.12534916 C49.45755911 6.12785268 50.39213043 6.1303562 51.3550221 6.13293558 C52.38561352 6.13059442 53.41620493 6.12825325 54.47802639 6.12584114 C55.57435568 6.12729458 56.67068498 6.12874802 57.80023637 6.13024551 C61.51164885 6.13392469 65.22302074 6.13041022 68.93443298 6.12698364 C71.60704324 6.1281347 74.27965061 6.12968089 76.95226008 6.13171089 C82.78252645 6.13533136 88.61278358 6.13520763 94.44305038 6.13266373 C103.11271983 6.12889114 111.78238143 6.13080983 120.45205082 6.13387203 C135.93369939 6.13914645 151.41534384 6.13867792 166.8969928 6.13579312 C180.44560167 6.13328082 193.99420902 6.13261934 207.54281807 6.13381577 C208.44038406 6.13389215 209.33795006 6.13396854 210.26271503 6.13404724 C213.90593798 6.13435856 217.54916093 6.13467696 221.19238388 6.135007 C255.39266739 6.13806835 289.59294826 6.13528886 323.79323137 6.1299101 C354.19801177 6.12516464 384.60278799 6.12558852 415.00756836 6.13037109 C449.14248025 6.13572242 483.27738982 6.13785087 517.41230208 6.13475883 C521.04932344 6.1344381 524.6863448 6.13412526 528.32336617 6.13381577 C529.21893848 6.13373669 530.1145108 6.13365761 531.03722168 6.13357614 C544.57875427 6.13243726 558.12028519 6.13377156 571.66181755 6.13629532 C587.05539976 6.13914988 602.44897719 6.13844981 617.84255879 6.13301457 C626.46448407 6.13007097 635.08639901 6.12989713 643.70832403 6.13366075 C649.46045717 6.13589535 655.212582 6.13452172 660.96471391 6.13015598 C664.24674321 6.12776685 667.52874767 6.12752902 670.81077706 6.13056196 C674.33924904 6.13357418 677.86766356 6.13051276 681.39613247 6.12584114 C682.93850784 6.12935289 682.93850784 6.12935289 684.51204231 6.13293558 C685.44911716 6.13043207 686.386192 6.12792855 687.35166305 6.12534916 C688.56262567 6.12524753 688.56262567 6.12524753 689.79805219 6.12514383 C691.99063887 6.00053202 693.8860221 5.57144705 696 5 C697.41534778 4.93543121 698.83337689 4.91388961 700.25 4.9375 C701.4875 4.958125 702.725 4.97875 704 5 C704 4.34 704 3.68 704 3 C711.26 3 718.52 3 726 3 C726 3.33 726 3.66 726 4 C723.7095344 4.48557871 721.41786582 4.96349409 719.125 5.4375 C717.84882812 5.70433594 716.57265625 5.97117187 715.2578125 6.24609375 C706.64344321 7.87144214 698.05701473 8.14578486 689.31096172 8.12863445 C688.16873092 8.13038749 687.02650011 8.13214053 685.84965625 8.13394669 C682.02416354 8.1385967 678.198709 8.13614374 674.37321472 8.13371277 C671.60198232 8.1350298 668.83075186 8.13784229 666.05952054 8.14057809 C660.03522023 8.14572251 654.01092796 8.14715096 647.98662567 8.14612198 C639.02805952 8.14459556 630.06950225 8.14876209 621.11093782 8.1539966 C604.17940237 8.16366348 587.24786995 8.16648059 570.31633206 8.16705366 C557.24126077 8.16751332 544.16619067 8.16957223 531.09111977 8.17275429 C527.32664102 8.17365184 523.56216228 8.17454165 519.79768354 8.17542917 C518.3938745 8.17576074 518.3938745 8.17576074 516.96170568 8.17609901 C490.6406321 8.18225242 464.31955894 8.18619965 437.99848461 8.18575573 C436.51019347 8.18573236 436.51019347 8.18573236 434.99183584 8.18570852 C429.9630465 8.18562541 424.93425717 8.18552637 419.90546783 8.18542381 C418.40737809 8.1853939 418.40737809 8.1853939 416.87902392 8.18536337 C414.85935658 8.18532294 412.83968925 8.18528114 410.82002192 8.18523798 C379.39360048 8.18462516 347.96718983 8.19213346 316.54077148 8.20581055 C281.22937746 8.2211721 245.91799053 8.22977674 210.60659295 8.22884732 C206.84117115 8.22877269 203.07574934 8.22872399 199.31032753 8.22869301 C198.38319191 8.22868135 197.45605629 8.2286697 196.50082565 8.22865769 C181.58383619 8.22862693 166.6668561 8.23501147 151.74986943 8.24362527 C136.75800415 8.25210327 121.76615258 8.25309053 106.77428623 8.24651595 C97.86981724 8.24282145 88.9653899 8.24464972 80.06092532 8.25445829 C74.10921772 8.26045999 68.15754026 8.2591607 62.20583404 8.25198779 C58.81728751 8.24810793 55.42888714 8.24843557 52.04033592 8.25544515 C48.38233758 8.26251071 44.72455286 8.25720704 41.0665617 8.24888897 C40.02545121 8.25385715 38.98434073 8.25882533 37.91168144 8.26394406 C28.31635836 8.21789379 19.08770113 7.16299301 10 4 C7.62518463 3.46980866 5.24679597 3.0111242 2.85546875 2.5625 C1.93701172 2.2840625 1.93701172 2.2840625 1 2 C0.67 1.34 0.34 0.68 0 0 Z " fill="#55575A" transform="translate(259,1101)"/>
<path d="M0 0 C0.86313713 3.20242559 1.06561586 5.84307961 0.9140625 9.16796875 C0.87023437 10.14314453 0.82640625 11.11832031 0.78125 12.12304688 C0.7296875 13.13431641 0.678125 14.14558594 0.625 15.1875 C0.58117187 16.21037109 0.53734375 17.23324219 0.4921875 18.28710938 C0.12989438 25.87010562 0.12989438 25.87010562 -1 27 C-1.09714945 28.46651355 -1.12447357 29.9377062 -1.1241985 31.40743405 C-1.12644579 32.36720403 -1.12869308 33.32697401 -1.13100848 34.31582794 C-1.12838146 35.38490368 -1.12575445 36.45397942 -1.12304783 37.55545139 C-1.12420167 38.68443886 -1.12535552 39.81342632 -1.12654433 40.97662553 C-1.12875031 44.13831659 -1.12642205 47.29996859 -1.12226619 50.46165656 C-1.11884867 53.8907076 -1.12119959 57.31975522 -1.12284368 60.74880689 C-1.12492331 66.76786849 -1.12326365 72.78692023 -1.11920547 78.80598068 C-1.11318775 87.75620123 -1.11286806 96.70641552 -1.11374746 105.65663771 C-1.11506358 120.70996253 -1.11171157 135.76328298 -1.10573006 150.81660652 C-1.09981986 165.72855717 -1.09596549 180.640506 -1.09487724 195.55245781 C-1.0948085 196.47846872 -1.09473976 197.40447963 -1.09466894 198.35855147 C-1.09433062 203.06099252 -1.09402923 207.76343356 -1.09374207 212.4658746 C-1.09163977 245.80252767 -1.08489715 279.13917835 -1.07543945 312.47583008 C-1.06626008 344.86873359 -1.05917399 377.26163646 -1.05493164 409.65454102 C-1.05480011 410.65243884 -1.05466859 411.65033666 -1.05453308 412.67847381 C-1.05321459 422.69946534 -1.05193878 432.72045687 -1.05069422 442.7414484 C-1.04815777 463.15668809 -1.04533652 483.57192773 -1.04234314 503.98716736 C-1.04220585 504.92589667 -1.04206856 505.86462598 -1.04192711 506.83180163 C-1.0327212 569.55453541 -1.01687539 632.27726787 -1 695 C-1.33 695 -1.66 695 -2 695 C-2.75574056 691.63275403 -3.12552691 688.52417304 -3.1276505 685.07571048 C-3.13066647 684.10245042 -3.13368244 683.12919036 -3.1367898 682.12643757 C-3.13502033 681.06281738 -3.13325086 679.99919718 -3.13142776 678.90334606 C-3.1334804 677.76440652 -3.13553303 676.62546698 -3.13764787 675.45201412 C-3.14233908 672.28095317 -3.14254223 669.10992803 -3.14087028 665.93886521 C-3.14013944 662.49246119 -3.14516153 659.0460648 -3.1494453 655.59966403 C-3.15702824 648.75960231 -3.15921851 641.9195484 -3.15977435 635.07948291 C-3.16068772 626.88794866 -3.16735455 618.69642164 -3.17412117 610.5048905 C-3.19018768 590.7032697 -3.19608553 570.90164966 -3.20086992 551.10002352 C-3.20320557 541.73161965 -3.20680822 532.36321639 -3.2105653 522.994813 C-3.22340237 490.92396779 -3.23412065 458.85312292 -3.2375679 426.7822752 C-3.23778953 424.76866976 -3.23801132 422.75506432 -3.23823325 420.74145888 C-3.23845389 418.72298707 -3.23867438 416.70451525 -3.2388947 414.68604344 C-3.23933725 410.63664289 -3.23978437 406.58724234 -3.24023438 402.5378418 C-3.24034377 401.5338244 -3.24045316 400.529807 -3.24056586 399.49536483 C-3.24419535 366.95038672 -3.26011052 334.4054309 -3.28342474 301.86046132 C-3.30802995 267.45039833 -3.3217411 233.04034807 -3.32293582 198.63027602 C-3.32310727 194.85152264 -3.3233227 191.07276926 -3.32357025 187.29401588 C-3.3236539 185.89836765 -3.3236539 185.89836765 -3.32373925 184.47452451 C-3.3248892 169.51042509 -3.33590668 154.54634856 -3.35045731 139.58225687 C-3.36483569 124.5348354 -3.36805175 109.48744322 -3.36001733 94.44001677 C-3.35556712 85.50507884 -3.35939723 76.57023559 -3.37525584 67.63531014 C-3.3850299 61.65928828 -3.38380449 55.68333251 -3.37381961 49.70731121 C-3.36844489 46.30719704 -3.36933735 42.90741126 -3.38032833 39.50728901 C-3.42117407 26.01415276 -3.33646971 13.14181379 0 0 Z " fill="#A0A1A4" transform="translate(139,262)"/>
<path d="M0 0 C3.1338651 3.41950758 3.46168649 5.97998087 3.67956352 10.55397511 C3.71267295 11.24333717 3.74578238 11.93269924 3.77989512 12.64295106 C4.25758854 24.13046852 4.13748514 35.64183511 4.12698364 47.13639832 C4.12758301 49.88963675 4.12968525 52.6428736 4.13171089 55.39611131 C4.13530575 61.3622922 4.13522342 67.32846402 4.13266373 73.29464531 C4.12886789 82.16626251 4.13082183 91.03787213 4.13387203 99.90948928 C4.13912749 115.7547152 4.13868566 131.59993707 4.13579312 147.44516336 C4.13327548 161.30490195 4.13262185 175.16463906 4.13381577 189.02437782 C4.13389215 189.94447297 4.13396854 190.86456812 4.13404724 191.81254495 C4.13435858 195.54758764 4.13467698 199.28263034 4.135007 203.01767304 C4.13806355 238.02767068 4.13529591 273.03766576 4.1299101 308.04766301 C4.1251604 339.15946226 4.12559306 370.27125742 4.13037109 401.38305664 C4.13572272 436.3464943 4.13785112 471.30992969 4.13475883 506.2733677 C4.13443811 509.99811033 4.13412527 513.72285296 4.13381577 517.4475956 C4.13373669 518.36470954 4.13365761 519.28182349 4.13357614 520.22672877 C4.13243786 534.08618821 4.13377035 547.945646 4.13629532 561.80510521 C4.13914997 577.55261037 4.13844938 593.30011086 4.13301457 609.04761543 C4.13007208 617.86491401 4.1298956 626.68220249 4.13366075 635.49950081 C4.13589645 641.38267986 4.13451972 647.26585078 4.13015598 653.14902862 C4.12776854 656.50485933 4.12752656 659.86065329 4.13056196 663.216486 C4.13357761 666.82564447 4.13050919 670.43474691 4.12584114 674.0439024 C4.12818231 675.09308349 4.13052347 676.14226458 4.13293558 677.22323903 C4.13043207 678.18359834 4.12792855 679.14395764 4.12534916 680.13341874 C4.1252814 680.95887592 4.12521365 681.7843331 4.12514383 682.63480414 C3.99108193 685.16854995 3.55430863 687.52690531 3 690 C2.67 690 2.34 690 2 690 C2.00015598 689.4282651 2.00031196 688.85653021 2.00047267 688.26747001 C2.01742485 626.00011676 2.03312946 563.73276326 2.04234314 501.46540833 C2.0424812 500.53478516 2.04261925 499.60416199 2.04276149 498.64533812 C2.04575464 478.41875155 2.04852479 458.19216496 2.05106533 437.96557833 C2.05231263 428.04598125 2.05360919 418.12638418 2.05493164 408.20678711 C2.0550624 407.21968567 2.05519316 406.23258423 2.05532788 405.21557062 C2.05958666 373.24017765 2.06709606 341.26478645 2.07629722 309.28939455 C2.08573805 276.42129193 2.09188736 243.5531903 2.09391499 210.68508635 C2.09420313 206.03910961 2.09452877 201.39313288 2.09487724 196.74715614 C2.09497838 195.37560927 2.09497838 195.37560927 2.09508156 193.97635438 C2.09626172 179.27758387 2.1008956 164.57881639 2.10683203 149.88004712 C2.11273093 135.09073892 2.11496506 120.30143372 2.11350138 105.51212438 C2.11274276 96.7333992 2.11475102 87.95468503 2.12079754 79.17596185 C2.12456691 73.30005971 2.12465005 67.42416473 2.12183181 61.54826209 C2.12033232 58.20778725 2.12090843 54.8673498 2.12488318 51.52687456 C2.13784171 39.95861334 2.13272385 28.40530547 1.55498409 16.84894276 C1.51621384 16.05580696 1.47744359 15.26267117 1.43749848 14.44550095 C1.5258798 10.92434851 1.5258798 10.92434851 0 8 C-0.14115161 5.32941149 -0.04247107 2.67567762 0 0 Z " fill="#CCCDCE" transform="translate(1113,260)"/>
<path d="M0 0 C0.33 0 0.66 0 1 0 C1.00173625 0.72252246 1.0034725 1.44504492 1.00526136 2.18946201 C1.10820798 44.97737008 1.2163028 87.76526249 1.33111694 130.55314045 C1.34488712 135.68654991 1.35861413 140.81995949 1.37231445 145.95336914 C1.37504276 146.97537246 1.37777106 147.99737578 1.38058204 149.0503489 C1.4247009 165.61555671 1.46531941 182.18077136 1.50465261 198.74599115 C1.5450661 215.73349254 1.58922198 232.72098121 1.63687855 249.70846385 C1.66618502 260.19726783 1.6925449 270.68607083 1.71517897 281.17489138 C1.7309626 288.35979336 1.75036932 295.54467977 1.77266841 302.72956447 C1.7854405 306.87970642 1.79657373 311.02983635 1.80341911 315.17999268 C1.80971446 318.97538841 1.82053325 322.77074269 1.8350333 326.5661157 C1.8394802 327.94300606 1.84223086 329.3199031 1.84316199 330.69680033 C1.84466463 332.56111471 1.8528106 334.42542027 1.8613348 336.28971577 C1.86399284 337.32749143 1.86665089 338.36526709 1.86938947 339.4344905 C1.89140797 342.12019658 1.89140797 342.12019658 3 345 C3.01960399 346.70834788 2.99344518 348.41745587 2.9375 350.125 C2.87425612 355.40235041 3.66363761 359.90511837 5 365 C4.01 365 3.02 365 2 365 C0.02874297 358.32269091 -0.42826462 352.02634299 -0.62364197 345.08488464 C-0.66142917 343.90871714 -0.69921636 342.73254963 -0.73814863 341.52074069 C-1.14615895 327.3378389 -1.0956435 313.15381689 -1.03152263 298.96704161 C-1.01454664 294.93681596 -1.00401243 290.9065721 -0.99261475 286.87632751 C-0.97212004 279.92774762 -0.94772959 272.9791907 -0.92053413 266.03063393 C-0.88122211 255.98473938 -0.84803252 245.93883156 -0.81623887 235.89291074 C-0.76446807 219.5858992 -0.70788665 203.27890816 -0.64819336 186.97192383 C-0.59028854 171.15064284 -0.53470318 155.32935644 -0.48217773 139.50805664 C-0.47892802 138.52944163 -0.4756783 137.55082663 -0.4723301 136.54255662 C-0.45603797 131.63212036 -0.4397908 126.72168395 -0.42356598 121.81124747 C-0.28934704 81.20747308 -0.1472845 40.60372897 0 0 Z " fill="#D3D2D1" transform="translate(138,610)"/>
<path d="M0 0 C1.6396875 0.2475 1.6396875 0.2475 3.3125 0.5 C6.87525873 1.06718184 6.87525873 1.06718184 10 1 C11.91169739 1.61971088 13.80673201 2.29194617 15.6875 3 C16.68136719 3.37125 17.67523438 3.7425 18.69921875 4.125 C19.45847656 4.41375 20.21773438 4.7025 21 5 C21.33 4.34 21.66 3.68 22 3 C24.97 3 27.94 3 31 3 C31 3.66 31 4.32 31 5 C32.03060547 4.98259766 32.03060547 4.98259766 33.08203125 4.96484375 C33.98308594 4.95582031 34.88414062 4.94679688 35.8125 4.9375 C36.70582031 4.92589844 37.59914063 4.91429687 38.51953125 4.90234375 C41 5 41 5 44 6 C46.56944236 6.11964338 49.11387381 6.18525624 51.68432617 6.20532227 C52.85541176 6.22017166 52.85541176 6.22017166 54.05015564 6.23532104 C56.63106248 6.26691177 59.21198773 6.29168388 61.79296875 6.31640625 C63.58230569 6.33697787 65.3716378 6.3579744 67.16096497 6.37937927 C71.87092166 6.43457842 76.58092206 6.48399723 81.29095459 6.53222656 C86.09700409 6.58245731 90.90299012 6.63813517 95.70898438 6.69335938 C105.13926869 6.80091458 114.56960812 6.90236544 124 7 C124 7.33 124 7.66 124 8 C111.83807407 8.04651155 99.67616959 8.08196436 87.51417255 8.10362434 C81.86578015 8.1140244 76.21744897 8.12811402 70.5690918 8.15087891 C65.10962008 8.17274272 59.65020696 8.18459698 54.19069481 8.18975449 C52.11648831 8.19342607 50.04228471 8.20059518 47.96810341 8.21146011 C34.87805673 8.27724912 22.52021876 8.29635917 10 4 C7.62518463 3.46980866 5.24679597 3.0111242 2.85546875 2.5625 C1.93701172 2.2840625 1.93701172 2.2840625 1 2 C0.67 1.34 0.34 0.68 0 0 Z " fill="#505255" transform="translate(259,1101)"/>
<path d="M0 0 C7.26 0 14.52 0 22 0 C22 0.33 22 0.66 22 1 C19.7095344 1.48557871 17.41786582 1.96349409 15.125 2.4375 C13.21074219 2.83775391 13.21074219 2.83775391 11.2578125 3.24609375 C3.16792609 4.77671691 -4.91505259 5.1470774 -13.13134766 5.11352539 C-14.56731293 5.11374443 -14.56731293 5.11374443 -16.0322876 5.1139679 C-19.1595699 5.11327776 -22.28679075 5.10552796 -25.4140625 5.09765625 C-27.59695401 5.09578887 -29.77984595 5.09436648 -31.96273804 5.09336853 C-37.68041155 5.08956855 -43.39805927 5.07976002 -49.11572266 5.06866455 C-54.96125947 5.05839602 -60.8068005 5.05385929 -66.65234375 5.04882812 C-78.10157377 5.03813528 -89.55078473 5.02108943 -101 5 C-101 4.67 -101 4.34 -101 4 C-99.89388367 3.98969254 -98.78776733 3.97938507 -97.64813232 3.96876526 C-87.23029267 3.87106117 -76.81251315 3.76832985 -66.39477158 3.66066074 C-61.03875531 3.60546743 -55.68273354 3.5520531 -50.32666016 3.50268555 C-45.15896089 3.45498912 -39.99132781 3.40264428 -34.82370758 3.34705925 C-32.85094091 3.32665964 -30.87815611 3.30794262 -28.90535736 3.29092598 C-26.144846 3.26682905 -23.38445934 3.23678159 -20.62402344 3.20532227 C-19.80618881 3.1995668 -18.98835419 3.19381134 -18.14573669 3.18788147 C-14.59124243 3.14175711 -11.42654108 2.89841713 -8 2 C-6.58465222 1.93543121 -5.16662311 1.91388961 -3.75 1.9375 C-1.89375 1.9684375 -1.89375 1.9684375 0 2 C0 1.34 0 0.68 0 0 Z " fill="#56595B" transform="translate(963,1104)"/>
<path d="M0 0 C0.33 0 0.66 0 1 0 C1.02505615 0.89307861 1.0501123 1.78615723 1.07592773 2.70629883 C1.17110186 6.02185454 1.27033283 9.33723729 1.37231445 12.65258789 C1.41560793 14.08711003 1.45728699 15.52168184 1.49731445 16.95629883 C1.55515267 19.0191952 1.61880753 21.08184283 1.68359375 23.14453125 C1.72025146 24.38565674 1.75690918 25.62678223 1.79467773 26.90551758 C1.87144121 30.03553347 1.87144121 30.03553347 3 33 C3.01960399 34.70834788 2.99344518 36.41745587 2.9375 38.125 C2.87425612 43.40235041 3.66363761 47.90511837 5 53 C4.01 53 3.02 53 2 53 C-0.08456312 46.0401117 -0.46868437 39.36520814 -0.6875 32.125 C-0.7280249 30.9393042 -0.7685498 29.7536084 -0.81030273 28.53198242 C-1.08544869 18.96920393 -0.80960716 9.52845353 0 0 Z " fill="#CDCCCC" transform="translate(138,922)"/>
<path d="M0 0 C8.74404036 9.60980144 4.10951594 35.93811923 4.06866455 47.98522949 C4.05828325 51.37816741 4.05383578 54.77111315 4.04882812 58.1640625 C4.03790307 64.77606154 4.02124534 71.38802648 4 78 C3.67 78 3.34 78 3 78 C2.98969254 77.41578781 2.97938507 76.83157562 2.96876526 76.22966003 C2.85902328 70.04682893 2.74460268 63.86409597 2.62768555 57.68139648 C2.58486357 55.38617035 2.54316211 53.09092299 2.50268555 50.7956543 C2.30279367 39.5005296 2.08402937 28.209874 1.52734375 16.92578125 C1.49024796 16.12883347 1.45315216 15.33188568 1.41493225 14.51078796 C1.52502946 10.95547948 1.52502946 10.95547948 0 8 C-0.14115161 5.32941149 -0.04247107 2.67567762 0 0 Z " fill="#C7C8C9" transform="translate(1113,260)"/>
<path d="M0 0 C1.6396875 0.2475 1.6396875 0.2475 3.3125 0.5 C6.87525873 1.06718184 6.87525873 1.06718184 10 1 C11.91169739 1.61971088 13.80673201 2.29194617 15.6875 3 C16.68136719 3.37125 17.67523438 3.7425 18.69921875 4.125 C19.45847656 4.41375 20.21773438 4.7025 21 5 C21.33 4.34 21.66 3.68 22 3 C24.97 3 27.94 3 31 3 C31 3.66 31 4.32 31 5 C32.03060547 4.96519531 32.03060547 4.96519531 33.08203125 4.9296875 C34.43361328 4.90261719 34.43361328 4.90261719 35.8125 4.875 C36.70582031 4.85179687 37.59914063 4.82859375 38.51953125 4.8046875 C41 5 41 5 44 7 C19.43500963 7.33599531 19.43500963 7.33599531 10 4 C7.62518463 3.46980866 5.24679597 3.0111242 2.85546875 2.5625 C1.93701172 2.2840625 1.93701172 2.2840625 1 2 C0.67 1.34 0.34 0.68 0 0 Z " fill="#919294" transform="translate(259,1101)"/>
<path d="M0 0 C7.26 0 14.52 0 22 0 C22 0.33 22 0.66 22 1 C10.51566611 3.88395829 -0.20059132 4.34293222 -12 4 C-9.1004339 2.34123921 -7.08364791 1.7638784 -3.75 1.875 C-1.89375 1.936875 -1.89375 1.936875 0 2 C0 1.34 0 0.68 0 0 Z " fill="#949596" transform="translate(963,1104)"/>
<path d="M0 0 C0.66 0.33 1.32 0.66 2 1 C-7.53672316 10.80163214 -7.53672316 10.80163214 -14.8125 11.125 C-15.534375 11.08375 -16.25625 11.0425 -17 11 C-13.60123724 8.35465756 -10.02376093 6.03047558 -6.375 3.75 C-5.78976562 3.37359375 -5.20453125 2.9971875 -4.6015625 2.609375 C-3.10551189 1.67605902 -1.55562556 0.83022604 0 0 Z " fill="#5D5F62" transform="translate(1040,1079)"/>
<path d="M0 0 C0.33 0.66 0.66 1.32 1 2 C0.67 2.99 0.34 3.98 0 5 C-0.66 5 -1.32 5 -2 5 C-2.0825 5.78375 -2.165 6.5675 -2.25 7.375 C-2.4975 8.24125 -2.745 9.1075 -3 10 C-3.639375 10.28875 -4.27875 10.5775 -4.9375 10.875 C-5.618125 11.24625 -6.29875 11.6175 -7 12 C-7.268125 13.093125 -7.53625 14.18625 -7.8125 15.3125 C-9.42662757 20.32479088 -11.58817215 21.30388298 -16 24 C-13.36102596 18.47072107 -10.0904661 13.03396702 -5.6875 8.75 C-3.58793492 6.57267325 -3.53738636 4.91724025 -3 2 C-2.01 1.34 -1.02 0.68 0 0 Z " fill="#9C9D9E" transform="translate(1090,1027)"/>
<path d="M0 0 C0.33 0 0.66 0 1 0 C1.07654536 4.51617599 1.10228696 8.59085217 0 13 C-0.66 13 -1.32 13 -2 13 C-2.144375 14.2375 -2.28875 15.475 -2.4375 16.75 C-2.78688502 19.56504499 -3.20379366 22.2701497 -4 25 C-4.66 25 -5.32 25 -6 25 C-5.51685086 20.24903347 -4.96106639 16.38356017 -3 12 C-1.4752705 8.06780287 -0.85006734 6.02476429 -2 2 C-1.34 1.34 -0.68 0.68 0 0 Z " fill="#AFB0B0" transform="translate(1112,971)"/>
<path d="M0 0 C0.66 0.33 1.32 0.66 2 1 C-2.73634446 6.68361335 -8.97792438 7.14015401 -16 8 C-16 8.66 -16 9.32 -16 10 C-17.98 10 -19.96 10 -22 10 C-19.16944827 7.16944827 -16.67670456 6.18576204 -12.8125 5.125 C-8.94752679 3.9845161 -5.530353 2.46659191 -1.91796875 0.70703125 C-1.28503906 0.47371094 -0.65210938 0.24039062 0 0 Z " fill="#8A8B8E" transform="translate(1021,1090)"/>
<path d="M0 0 C2.86527579 3.21551323 3.39817027 5.37120225 3.51171875 9.640625 C3.54716797 10.71054687 3.58261719 11.78046875 3.61914062 12.8828125 C3.64169922 13.99398438 3.66425781 15.10515625 3.6875 16.25 C3.72166016 17.37664062 3.75582031 18.50328125 3.79101562 19.6640625 C3.87343014 22.44260901 3.94260298 25.22084252 4 28 C3.34 28 2.68 28 2 28 C1.97494385 27.42967041 1.9498877 26.85934082 1.92407227 26.27172852 C1.80843451 23.70173843 1.68556376 21.13214473 1.5625 18.5625 C1.52318359 17.66466797 1.48386719 16.76683594 1.44335938 15.84179688 C1.40146484 14.98779297 1.35957031 14.13378906 1.31640625 13.25390625 C1.27974854 12.46314697 1.24309082 11.6723877 1.20532227 10.85766602 C1.19436743 8.98598559 1.19436743 8.98598559 0 8 C-0.14115161 5.32941149 -0.04247107 2.67567762 0 0 Z " fill="#88898B" transform="translate(1113,260)"/>
<path d="M0 0 C0.99352844 3.09097736 0.96367132 4.91625179 0 8 C-0.0825 8.61875 -0.165 9.2375 -0.25 9.875 C-1.6914919 13.95922706 -4.9811177 16.9811177 -8 20 C-7.67 18.02 -7.34 16.04 -7 14 C-6.34 14 -5.68 14 -5 14 C-4.34 11.03 -3.68 8.06 -3 5 C-2.34 5 -1.68 5 -1 5 C-0.67 3.35 -0.34 1.7 0 0 Z " fill="#C9CACC" transform="translate(156,215)"/>
<path d="M0 0 C-1.49041773 3.79379058 -3.69062512 5.68343758 -7 8 C-7.66 8 -8.32 8 -9 8 C-9.226875 8.61875 -9.45375 9.2375 -9.6875 9.875 C-11.37929835 12.61410209 -12.99244161 13.05024472 -16 14 C-15.04882866 12.8274869 -14.08882991 11.66212985 -13.125 10.5 C-12.59132812 9.8503125 -12.05765625 9.200625 -11.5078125 8.53125 C-11.01023438 8.0259375 -10.51265625 7.520625 -10 7 C-9.34 7 -8.68 7 -8 7 C-8 6.34 -8 5.68 -8 5 C-2.52380952 0 -2.52380952 0 0 0 Z " fill="#C3C4C6" transform="translate(201,162)"/>
<path d="M0 0 C0.33 0 0.66 0 1 0 C1.12117187 0.86882813 1.24234375 1.73765625 1.3671875 2.6328125 C1.53476563 3.78523437 1.70234375 4.93765625 1.875 6.125 C2.03742188 7.26195312 2.19984375 8.39890625 2.3671875 9.5703125 C2.97526934 12.86596593 3.93207888 15.83068571 5 19 C5.26211438 20.61719629 5.47667526 22.24342789 5.625 23.875 C5.69976562 24.65617188 5.77453125 25.43734375 5.8515625 26.2421875 C5.92503906 27.11230469 5.92503906 27.11230469 6 28 C4 27 4 27 3 24.5625 C0.66596859 16.2475131 -0.29598527 8.64934744 0 0 Z " fill="#4C4E50" transform="translate(137,957)"/>
<path d="M0 0 C0.33 0 0.66 0 1 0 C1 3.96 1 7.92 1 12 C1.66 12 2.32 12 3 12 C3.66 14.97 4.32 17.94 5 21 C4.01 21 3.02 21 2 21 C-0.21211746 13.94887561 -0.20177072 7.35342179 0 0 Z " fill="#B8B9B8" transform="translate(138,954)"/>
<path d="M0 0 C1.37494222 2.26461071 2.07991957 3.45654694 1.6875 6.125 C1 8 1 8 0 10 C-0.66 10 -1.32 10 -2 10 C-1.125 2.25 -1.125 2.25 0 0 Z " fill="#CFCFD0" transform="translate(142,252)"/>
<path d="M0 0 C2.62185167 5.05186053 3.13230638 9.31082555 3 15 C1.08697693 11.73386305 0.64325339 9.00554752 0.375 5.25 C0.30023438 4.26515625 0.22546875 3.2803125 0.1484375 2.265625 C0.09945312 1.51796875 0.05046875 0.7703125 0 0 Z " fill="#B1B2B3" transform="translate(142,977)"/>
<path d="M0 0 C0.66 0 1.32 0 2 0 C1.61479436 2.53910197 1.29902057 3.72751123 -0.62890625 5.484375 C-1.26699219 5.90203125 -1.90507813 6.3196875 -2.5625 6.75 C-3.20316406 7.17796875 -3.84382813 7.6059375 -4.50390625 8.046875 C-5.24447266 8.51867188 -5.24447266 8.51867188 -6 9 C-4.4722133 5.56247993 -2.49818944 2.81046312 0 0 Z " fill="#6C6E71" transform="translate(1080,1042)"/>
<path d="M0 0 C1.41687119 4.25061356 0.19320039 6.71851625 -1 11 C-1.33 11 -1.66 11 -2 11 C-2.33 8.36 -2.66 5.72 -3 3 C-2.01 2.67 -1.02 2.34 0 2 C0 1.34 0 0.68 0 0 Z " fill="#56585B" transform="translate(144,241)"/>
<path d="M0 0 C0.66 0.33 1.32 0.66 2 1 C0.68 2.32 -0.64 3.64 -2 5 C-2.99 4.67 -3.98 4.34 -5 4 C-3.36587557 2.29159719 -2.13093906 1.06546953 0 0 Z " fill="#5D5F62" transform="translate(1021,1090)"/>
<path d="M0 0 C0.66 0 1.32 0 2 0 C1.40138258 2.35171131 0.73075648 4.6859378 0 7 C-0.99 7.495 -0.99 7.495 -2 8 C-2.125 5.125 -2.125 5.125 -2 2 C-1.34 1.34 -0.68 0.68 0 0 Z " fill="#AFB0B0" transform="translate(1100,1007)"/>
<path d="M0 0 C-1.4562545 0.67119549 -2.91507867 1.33681807 -4.375 2 C-5.59316406 2.556875 -5.59316406 2.556875 -6.8359375 3.125 C-9 4 -9 4 -11 4 C-10.67 3.01 -10.34 2.02 -10 1 C-8.22265625 0.234375 -8.22265625 0.234375 -6.0625 -0.25 C-5.35222656 -0.42015625 -4.64195312 -0.5903125 -3.91015625 -0.765625 C-2 -1 -2 -1 0 0 Z " fill="#5D5F63" transform="translate(236,141)"/>
</svg>
